<svg width="91" height="99" viewBox="0 0 91 99" fill="none" xmlns="http://www.w3.org/2000/svg">
<path d="M32.1385 68.8097V75.2782C32.1385 76.9351 33.4817 78.2782 35.1386 78.2782H55.376C57.0328 78.2782 58.376 76.9351 58.376 75.2782V68.8097M32.1385 68.8097V39.2983C32.1385 37.6415 33.4817 36.2983 35.1385 36.2983H55.376C57.0328 36.2983 58.376 37.6415 58.376 39.2983V68.8097M32.1385 68.8097H58.376" stroke="#FFBB00" stroke-width="3"/>
<circle cx="45.2572" cy="73.6177" r="1.97319" fill="#FFBB00"/>
<rect x="37.4396" y="41.6135" width="5.24749" height="5.24749" rx="1" stroke="#FFBB00" stroke-width="2"/>
<rect x="47.9707" y="41.6138" width="5.24749" height="5.24749" rx="1" stroke="#FFBB00" stroke-width="2"/>
<rect x="37.4396" y="59.239" width="5.24749" height="5.24749" rx="1" stroke="#FFBB00" stroke-width="2"/>
<rect x="47.9707" y="59.239" width="5.24749" height="5.24749" rx="1" stroke="#FFBB00" stroke-width="2"/>
<rect x="37.4396" y="50.4263" width="5.24749" height="5.24749" rx="1" stroke="#FFBB00" stroke-width="2"/>
<rect x="47.9707" y="50.4265" width="5.24749" height="5.24749" rx="1" stroke="#FFBB00" stroke-width="2"/>
<circle cx="45.7847" cy="53.3445" r="45" fill="#FFBB00" fill-opacity="0.14"/>
<circle cx="73.376" cy="15.457" r="15" fill="#FFBB00"/>
<path d="M75.8395 12.7366C75.8395 13.1116 75.7796 13.4762 75.6598 13.8303C75.54 14.1845 75.3655 14.5465 75.1364 14.9163C74.9072 15.2913 74.6259 15.6793 74.2926 16.0803C73.9645 16.4814 73.5895 16.9137 73.1676 17.3772L70.4645 20.3694H74.1598C74.6077 20.3694 74.9228 20.2574 75.1051 20.0334C75.2874 19.8095 75.4202 19.523 75.5035 19.1741L75.566 18.885H76.2379L76.1598 21.6506H69.277V20.4788L71.9489 17.3928C72.3759 16.898 72.7327 16.4553 73.0192 16.0647C73.3108 15.6741 73.5452 15.3043 73.7223 14.9553C73.8994 14.6116 74.027 14.2756 74.1051 13.9475C74.1832 13.6142 74.2223 13.2652 74.2223 12.9006C74.2223 12.2913 74.0895 11.8017 73.8239 11.4319C73.5634 11.0569 73.152 10.8694 72.5895 10.8694C72.1207 10.8694 71.7587 10.9762 71.5035 11.1897C71.2483 11.398 71.0712 11.6819 70.9723 12.0413C70.8785 12.4006 70.8317 12.8043 70.8317 13.2522C70.4358 13.2522 70.1077 13.1793 69.8473 13.0334C69.5869 12.8824 69.4567 12.609 69.4567 12.2131C69.4567 11.5673 69.7223 11.0543 70.2535 10.6741C70.514 10.4814 70.8395 10.3329 71.2301 10.2288C71.6207 10.1194 72.0739 10.0647 72.5895 10.0647C73.0947 10.0647 73.5478 10.1298 73.9489 10.26C74.3499 10.385 74.691 10.5621 74.9723 10.7913C75.5504 11.2704 75.8395 11.9189 75.8395 12.7366Z" fill="black"/>
</svg>
