<svg width="149" height="155" viewBox="0 0 149 155" fill="none" xmlns="http://www.w3.org/2000/svg">
<circle cx="74.8877" cy="58.9479" r="35.0058" stroke="#FFBB00" stroke-width="6"/>
<path d="M146.224 151.818H3.55151C5.36173 133.893 19.5243 118.48 39.8381 110.114C50.0599 105.904 59.1949 113.292 69.6596 116.855C71.131 117.356 72.8792 117.607 75.1503 117.607C77.9893 117.607 80.0429 117.097 81.84 116.138C91.0918 111.204 100.415 105.935 110.092 109.972C130.32 118.413 144.419 133.942 146.224 151.818Z" stroke="#FFBB00" stroke-width="5"/>
<rect x="16.3972" y="36.5288" width="22.6448" height="36.6819" rx="9" stroke="#FFBB00" stroke-width="5"/>
<rect x="110.733" y="36.5288" width="22.6448" height="36.6819" rx="9" stroke="#FFBB00" stroke-width="5"/>
<path d="M26.5976 36.9351C25.9421 -10.0377 122.322 -7.62255 122.993 36.9351" stroke="#FFBB00" stroke-width="5"/>
<path d="M105.628 95.6844C104.283 95.9959 103.445 97.3388 103.756 98.684C104.068 100.029 105.411 100.867 106.756 100.555L105.628 95.6844ZM129.918 67.7969C129.492 71.4435 128.546 77.2212 125.175 82.6733C121.857 88.039 116.083 93.2632 105.628 95.6844L106.756 100.555C118.523 97.8305 125.415 91.7909 129.427 85.303C133.386 78.9015 134.433 72.2359 134.884 68.3774L129.918 67.7969Z" fill="#FFBB00"/>
</svg>
