<svg width="91" height="99" viewBox="0 0 91 99" fill="none" xmlns="http://www.w3.org/2000/svg">
<path fill-rule="evenodd" clip-rule="evenodd" d="M32.3102 44.8384C30.9995 44.8384 29.9452 45.8945 29.9452 47.1874C29.9452 48.4802 30.9995 49.5363 32.3102 49.5363C33.6209 49.5363 34.6752 48.4802 34.6752 47.1874C34.6752 45.8945 33.6209 44.8384 32.3102 44.8384ZM27.9452 47.1874C27.9452 44.781 29.904 42.8384 32.3102 42.8384C34.7164 42.8384 36.6752 44.781 36.6752 47.1874C36.6752 49.5937 34.7164 51.5363 32.3102 51.5363C29.904 51.5363 27.9452 49.5937 27.9452 47.1874Z" fill="#FFBB00"/>
<path fill-rule="evenodd" clip-rule="evenodd" d="M19.7152 38.8755C20.6412 39.6104 21.4664 40.7384 21.9965 41.737C24.2046 45.8964 27.3954 49.8311 30.9977 50.7766C34.4734 51.6889 38.6642 49.8825 43.073 41.593C43.5483 40.6992 44.1629 39.7539 44.9121 39.1411C45.6916 38.5036 46.6544 38.2045 47.6957 38.7475C48.7182 39.2806 49.0977 40.4882 49.1337 41.5896C49.1691 42.6765 48.893 43.8398 48.4505 44.7369C45.6271 50.4614 42.6564 54.1587 39.6412 56.2598V56.2598C38.8736 56.7946 38.3073 57.5947 38.1872 58.5224L37.2957 65.409V80.0881H27.3863V65.409L26.8061 58.4995C26.7257 57.543 26.1836 56.6951 25.4106 56.1261C21.9328 53.5655 18.9148 49.4942 16.6523 45.7571C16.0319 44.7323 15.4273 43.4736 15.2335 42.216C15.1341 41.5713 15.1355 40.8801 15.334 40.2145C15.5359 39.5373 15.9165 38.9722 16.4584 38.5415C17.5806 37.6496 18.8154 38.1614 19.7152 38.8755ZM35.2957 65.409H29.3863V78.0881H31.412V68.1776H33.412V78.0881H35.2957V65.409ZM36.3783 57.4433L35.5092 62.8939H29.0101L28.6782 57.4433V56.8307C28.6782 56.0915 28.2667 55.42 27.6527 55.0083C24.5071 52.8993 20.2134 48.3557 17.9028 44.5389C17.3298 43.5925 16.904 42.6314 16.7808 41.8322C16.7217 41.4484 16.7401 41.1519 16.8087 40.922C16.8737 40.7037 17.0073 40.4654 17.2955 40.2363C17.6386 39.9636 18.1537 39.9954 18.879 40.571C19.578 41.1258 20.253 42.0334 20.6888 42.8541C22.9738 47.1584 26.4662 51.6295 30.6782 52.7351C35.0169 53.874 39.7714 51.3768 44.38 42.7115C44.8096 41.9037 45.2814 41.2188 45.7666 40.822C46.2215 40.4499 46.6409 40.3598 47.0963 40.5973C47.3565 40.733 47.538 41.0468 47.5584 41.6723C47.5792 42.3123 47.4071 43.0816 47.1139 43.6761C44.3869 49.2051 41.5951 52.6164 38.8821 54.5069C38.5489 54.7753 38.2714 54.9753 38.0348 55.1279C37.1777 55.6806 36.4877 56.4293 36.3783 57.4433V57.4433Z" fill="#FFBB00"/>
<path fill-rule="evenodd" clip-rule="evenodd" d="M60.8787 58.1769C59.9809 58.1769 59.2587 58.9004 59.2587 59.786C59.2587 60.6715 59.9809 61.395 60.8787 61.395C61.7765 61.395 62.4988 60.6715 62.4988 59.786C62.4988 58.9004 61.7765 58.1769 60.8787 58.1769ZM57.8887 59.786C57.8887 58.1376 59.2305 56.8069 60.8787 56.8069C62.527 56.8069 63.8688 58.1376 63.8688 59.786C63.8688 61.4343 62.527 62.765 60.8787 62.765C59.2305 62.765 57.8887 61.4343 57.8887 59.786Z" fill="#FFBB00"/>
<path fill-rule="evenodd" clip-rule="evenodd" d="M52.2511 54.0922C52.8854 54.5956 53.4507 55.3683 53.8138 56.0524C55.3264 58.9016 57.5121 61.5969 59.9797 62.2446C62.3606 62.8695 65.2313 61.6321 68.2513 55.9537C68.5769 55.3414 68.998 54.6939 69.5112 54.2742C70.0451 53.8375 70.7046 53.6326 71.4179 54.0045C72.1183 54.3697 72.3783 55.1969 72.4029 55.9514C72.4272 56.696 72.2381 57.4928 71.935 58.1073C70.0009 62.0287 67.9659 64.5613 65.9005 66.0006V66.0006C65.3747 66.367 64.9868 66.915 64.9045 67.5505L64.2939 72.2679V82.3232H57.5058V72.2679L57.1487 68.0143C57.0683 67.0578 56.5221 66.2129 55.77 65.6165C53.5488 63.855 51.6193 61.2281 50.153 58.8061C49.728 58.1042 49.3139 57.2419 49.1811 56.3805C49.113 55.9389 49.114 55.4654 49.2499 55.0095C49.3882 54.5455 49.649 54.1585 50.0202 53.8634C50.7889 53.2525 51.6348 53.6031 52.2511 54.0922ZM62.9238 72.2679H58.8759V80.9531H60.2635V74.1643H61.6335V80.9531H62.9238V72.2679ZM63.6654 66.8113L63.0701 70.545H58.6182L58.3908 66.8113V66.77C58.3908 66.0308 57.9781 65.3587 57.3777 64.9275C55.2586 63.4055 52.5176 60.4626 51.0096 57.9717C50.6171 57.3234 50.3254 56.6651 50.241 56.1176C50.2005 55.8547 50.2131 55.6516 50.2601 55.4941C50.3047 55.3446 50.3962 55.1813 50.5936 55.0244C50.8286 54.8376 51.1815 54.8594 51.6783 55.2537C52.1571 55.6337 52.6195 56.2554 52.918 56.8176C54.4832 59.766 56.8756 62.8288 59.7609 63.5862C62.7328 64.3663 65.9897 62.6557 69.1466 56.7199C69.4409 56.1665 69.7641 55.6974 70.0964 55.4256C70.4081 55.1707 70.6954 55.109 71.0073 55.2717C71.1856 55.3646 71.3099 55.5796 71.3238 56.008C71.3382 56.4465 71.2202 56.9735 71.0194 57.3807C69.1514 61.1681 67.2389 63.5048 65.3805 64.7998C65.1523 64.9837 64.9622 65.1207 64.8001 65.2252C64.213 65.6039 63.7404 66.1167 63.6654 66.8113V66.8113Z" fill="#FFBB00"/>
<circle cx="45.4688" cy="53.5383" r="45" fill="#FFBB00" fill-opacity="0.14"/>
<circle cx="73.0601" cy="15.6509" r="15" fill="#FFBB00"/>
<path d="M72.4946 20.032C72.8123 20.032 73.1144 19.9877 73.4009 19.8992C73.6873 19.8106 73.9399 19.6648 74.1587 19.4617C74.3774 19.2585 74.5519 18.9929 74.6821 18.6648C74.8123 18.3367 74.8774 17.933 74.8774 17.4539C74.8774 16.7716 74.6196 16.2325 74.104 15.8367C73.854 15.644 73.5493 15.4955 73.1899 15.3914C72.8306 15.282 72.4269 15.2273 71.979 15.2273H71.4712V14.4148H71.979C72.6978 14.4148 73.2941 14.1908 73.7681 13.7429C73.9972 13.5294 74.1743 13.2716 74.2993 12.9695C74.4295 12.6622 74.4946 12.3184 74.4946 11.9382C74.4946 11.308 74.3618 10.821 74.0962 10.4773C73.8358 10.1283 73.3983 9.95386 72.7837 9.95386C72.3149 9.95386 71.953 10.0606 71.6978 10.2742C71.4425 10.4825 71.2655 10.7664 71.1665 11.1257C71.0675 11.4851 71.0181 11.8888 71.0181 12.3367C70.6222 12.3367 70.2941 12.2638 70.0337 12.1179C69.7733 11.9669 69.6431 11.6934 69.6431 11.2976C69.6431 10.6518 69.9087 10.1388 70.4399 9.75854C70.7056 9.56584 71.0337 9.4174 71.4243 9.31323C71.8149 9.20386 72.2681 9.14917 72.7837 9.14917C73.7993 9.14917 74.6118 9.37052 75.2212 9.81323C75.5129 10.032 75.7394 10.3002 75.9009 10.6179C76.0623 10.9304 76.1431 11.2898 76.1431 11.696C76.1431 12.0554 76.078 12.394 75.9478 12.7117C75.8228 13.0242 75.6457 13.3106 75.4165 13.571C74.9425 14.1023 74.3306 14.4591 73.5806 14.6414C73.6795 14.6518 73.7811 14.6648 73.8853 14.6804C73.9894 14.696 74.0988 14.7169 74.2134 14.7429C74.6821 14.8523 75.1144 15.0424 75.5103 15.3132C75.7134 15.4591 75.8905 15.6309 76.0415 15.8289C76.1925 16.032 76.3123 16.269 76.4009 16.5398C76.4946 16.8054 76.5415 17.1153 76.5415 17.4695C76.5415 17.907 76.4842 18.2898 76.3696 18.6179C76.255 18.9565 76.0962 19.2533 75.8931 19.5085C75.6951 19.7585 75.4634 19.9721 75.1978 20.1492C74.9373 20.3263 74.6535 20.4695 74.3462 20.5789C74.0441 20.6882 73.7342 20.7664 73.4165 20.8132C73.0988 20.8653 72.7863 20.8914 72.479 20.8914C71.953 20.8914 71.4998 20.8419 71.1196 20.7429C70.7394 20.6492 70.4269 20.5216 70.1821 20.3601C69.9321 20.1986 69.7472 20.0111 69.6274 19.7976C69.5129 19.5789 69.4556 19.3523 69.4556 19.1179C69.4556 18.795 69.5467 18.545 69.729 18.3679C69.9113 18.1856 70.1561 18.0945 70.4634 18.0945C70.4634 18.6726 70.6431 19.1414 71.0024 19.5007C71.367 19.8549 71.8644 20.032 72.4946 20.032Z" fill="black"/>
<path d="M36.6752 34.0347C38.7742 33.649 39.4941 32.8793 40.0589 30.651C40.7658 32.9024 41.4998 33.6382 43.4426 34.0347C41.1275 34.6389 40.4422 35.4002 40.0589 37.4184C39.6522 35.1561 38.8877 34.4414 36.6752 34.0347Z" fill="#FFBB00"/>
<path d="M63.8688 48.1526C65.9678 47.7669 66.6877 46.9972 67.2525 44.7689C67.9594 47.0203 68.6934 47.7561 70.6362 48.1526C68.3211 48.7568 67.6358 49.5181 67.2525 51.5363C66.8458 49.274 66.0813 48.5593 63.8688 48.1526Z" fill="#FFBB00"/>
</svg>
