<svg width="203" height="141" viewBox="0 0 203 141" fill="none" xmlns="http://www.w3.org/2000/svg">
<circle cx="104.492" cy="68.4477" r="62.4575" stroke="#FFBB00" stroke-width="5"/>
<path d="M5.26933 5.99023C3.63497 5.99023 2.31006 7.31515 2.31006 8.94951V30.8992C2.31006 35.253 5.62085 39.0061 10.3936 40.7227C10.6038 40.7982 10.7329 41.0085 10.7329 41.2318V41.2318L10.7086 46.5831C9.19212 47.672 8.20431 49.4508 8.20431 51.4602L8.22858 122.893C8.22858 127.318 11.8156 130.905 16.2404 130.905C20.6653 130.905 24.2523 127.318 24.2523 122.893L24.2281 51.4602C24.2281 49.4508 23.2403 47.6721 21.7238 46.5832L21.7481 41.2318V41.2318C21.7481 41.0085 21.8772 40.7982 22.0874 40.7226C26.8601 39.0061 30.1709 35.253 30.1709 30.8992L30.1709 8.94951C30.1709 7.31515 28.846 5.99023 27.2116 5.99023C25.5773 5.99023 24.2524 7.31515 24.2524 8.94951V30.8992H19.1998V8.94951C19.1998 7.31515 17.8749 5.99023 16.2406 5.99023C14.6062 5.99023 13.2813 7.31515 13.2813 8.94951V30.8992H8.22861V8.94951C8.22861 7.31515 6.90369 5.99023 5.26933 5.99023Z" stroke="#FFBB00" stroke-width="3"/>
<path d="M199.05 9.16257V64.5395C200.267 65.6376 201.032 67.2271 201.032 68.9953L201.032 122.706C201.032 126.208 198.193 129.046 194.692 129.046C191.19 129.046 188.352 126.208 188.352 122.706L188.352 68.9953C188.352 67.387 188.984 65.9266 190.015 64.8492C190.21 64.6447 190.333 64.378 190.333 64.0949V62.4223C190.333 60.2132 188.542 58.4223 186.333 58.4223H181.803C181.297 58.4223 180.869 58.05 180.828 57.5455C179.898 46.1921 185.316 20.6514 194.916 8.09383C195.989 6.45647 199.05 7.25131 199.05 9.16257Z" stroke="#FFBB00" stroke-width="3"/>
<path fill-rule="evenodd" clip-rule="evenodd" d="M88.0771 34.3629C93.7002 34.3629 98.9187 36.2639 103.215 39.5047C104.004 40.1 105.103 40.1 105.892 39.5047C110.188 36.2639 115.406 34.3629 121.029 34.3629C135.717 34.3629 147.624 47.3172 147.624 63.2971C147.624 68.777 144.699 74.3755 142.156 78.287C140.84 80.3122 139.528 82.0297 138.547 83.2404C138.055 83.8473 137.643 84.3307 137.35 84.666C137.204 84.8337 137.088 84.9646 137.006 85.0557C136.965 85.1012 136.933 85.1368 136.91 85.162L136.887 85.1862C128.35 94.7498 120.739 102.101 113.804 108.798C110.947 111.557 108.993 113.115 106.349 115.761C105.667 116.443 103.257 116.511 102.608 115.761C99.963 113.115 98.1594 111.557 95.3029 108.798C88.3678 102.101 80.7566 94.7498 72.2192 85.1862L72.197 85.162C72.174 85.1368 72.1417 85.1012 72.1008 85.0557C72.0189 84.9646 71.9024 84.8337 71.7562 84.666C71.4638 84.3307 71.0518 83.8473 70.5599 83.2404C69.5787 82.0297 68.2671 80.3122 66.9504 78.287C64.4073 74.3755 61.4824 68.777 61.4824 63.2971C61.4824 47.3172 73.3892 34.3629 88.0771 34.3629ZM100.327 106.375C102.68 108.651 106.427 108.651 108.78 106.375C109.391 105.784 110.006 105.19 110.624 104.593C117.514 97.9396 124.905 90.8017 133.313 81.3827L133.328 81.3656L133.342 81.35L133.344 81.3488L133.36 81.3304C133.375 81.3141 133.399 81.2877 133.432 81.2516C133.497 81.1794 133.595 81.0686 133.723 80.9222C133.978 80.6291 134.349 80.1945 134.796 79.6426C135.693 78.5357 136.886 76.9726 138.074 75.1456C140.54 71.3529 142.624 66.9611 142.624 63.2971C142.624 50.3216 132.956 39.8028 121.029 39.8028C115.317 39.8028 110.127 42.2124 106.263 46.1537C105.324 47.1113 103.782 47.1113 102.843 46.1537C98.9795 42.2124 93.7897 39.8028 88.0771 39.8028C76.1507 39.8028 66.4824 50.3216 66.4824 63.2971C66.4824 66.9611 68.5665 71.3529 71.0324 75.1456C72.2202 76.9726 73.4131 78.5357 74.3102 79.6426C74.7575 80.1945 75.1282 80.6291 75.3837 80.9222C75.5114 81.0686 75.6101 81.1794 75.675 81.2516C75.7074 81.2877 75.7314 81.3141 75.7463 81.3304L75.7631 81.3488L75.7786 81.3656L75.7939 81.3827C84.2012 90.8017 91.5928 97.9396 98.4823 104.593C99.1009 105.19 99.7156 105.784 100.327 106.375Z" fill="#FFBB00"/>
</svg>
