<svg width="251" height="135" viewBox="0 0 251 135" fill="none" xmlns="http://www.w3.org/2000/svg">
<path d="M1.072 10.028V3.8H22.168V10.028H15.112V29H8.128V10.028H1.072ZM34.9784 18.92C34.9784 18.056 34.8344 17.396 34.5464 16.94C34.2584 16.46 33.7064 16.22 32.8904 16.22C32.1464 16.22 31.5464 16.448 31.0904 16.904C30.6584 17.36 30.4424 18.032 30.4424 18.92V29H24.2144V0.919999H30.4424V14.6C30.8984 13.736 31.5344 13.052 32.3504 12.548C33.1904 12.02 34.2464 11.756 35.5184 11.756C37.6544 11.756 39.1304 12.296 39.9464 13.376C40.7864 14.456 41.2064 15.992 41.2064 17.984V29H34.9784V18.92ZM54.1675 29.36C51.0955 29.36 48.6835 28.592 46.9315 27.056C45.1795 25.496 44.3035 23.384 44.3035 20.72C44.3035 18.008 45.1555 15.896 46.8595 14.384C48.5635 12.848 50.9275 12.08 53.9515 12.08C56.9515 12.08 59.2435 12.8 60.8275 14.24C62.4355 15.68 63.2395 17.744 63.2395 20.432C63.2395 20.72 63.2275 21.008 63.2035 21.296C63.2035 21.56 63.1915 21.8 63.1675 22.016H50.6395C50.9755 24.056 52.0795 25.076 53.9515 25.076C55.7755 25.076 57.0475 24.44 57.7675 23.168L63.3835 24.284C61.6075 27.668 58.5355 29.36 54.1675 29.36ZM53.8075 16.04C52.1035 16.04 51.0715 16.964 50.7115 18.812H56.5795C56.5315 17.948 56.2555 17.276 55.7515 16.796C55.2475 16.292 54.5995 16.04 53.8075 16.04ZM98.758 21.98C98.758 24.5 97.846 26.3 96.022 27.38C94.222 28.46 91.75 29 88.606 29H77.842V3.8H87.958C89.734 3.8 91.33 4.04 92.746 4.52C94.162 5 95.278 5.72 96.094 6.68C96.91 7.64 97.318 8.828 97.318 10.244C97.318 11.444 96.994 12.5 96.346 13.412C95.722 14.3 94.858 15.008 93.754 15.536C95.17 16.064 96.358 16.856 97.318 17.912C98.278 18.968 98.758 20.324 98.758 21.98ZM87.094 9.128H84.826V13.772H87.094C88.054 13.772 88.786 13.556 89.29 13.124C89.794 12.692 90.046 12.104 90.046 11.36C90.046 9.872 89.062 9.128 87.094 9.128ZM84.826 23.672H87.742C88.774 23.672 89.65 23.504 90.37 23.168C91.114 22.808 91.486 22.064 91.486 20.936C91.486 19.976 91.114 19.328 90.37 18.992C89.65 18.656 88.774 18.488 87.742 18.488H84.826V23.672ZM111.261 29.36C108.189 29.36 105.777 28.592 104.025 27.056C102.273 25.496 101.397 23.384 101.397 20.72C101.397 18.008 102.249 15.896 103.953 14.384C105.657 12.848 108.021 12.08 111.045 12.08C114.045 12.08 116.337 12.8 117.921 14.24C119.529 15.68 120.333 17.744 120.333 20.432C120.333 20.72 120.321 21.008 120.297 21.296C120.297 21.56 120.285 21.8 120.261 22.016H107.733C108.069 24.056 109.173 25.076 111.045 25.076C112.869 25.076 114.141 24.44 114.861 23.168L120.477 24.284C118.701 27.668 115.629 29.36 111.261 29.36ZM110.901 16.04C109.197 16.04 108.165 16.964 107.805 18.812H113.673C113.625 17.948 113.349 17.276 112.845 16.796C112.341 16.292 111.693 16.04 110.901 16.04ZM124.467 22.7C125.955 23.852 127.167 24.584 128.103 24.896C129.063 25.208 129.771 25.364 130.227 25.364C130.683 25.364 131.019 25.268 131.235 25.076C131.451 24.86 131.559 24.596 131.559 24.284C131.559 23.996 131.463 23.756 131.271 23.564C131.103 23.348 130.767 23.132 130.263 22.916C129.783 22.7 129.063 22.436 128.103 22.124C127.311 21.86 126.555 21.536 125.835 21.152C125.115 20.744 124.527 20.204 124.071 19.532C123.639 18.836 123.423 17.948 123.423 16.868C123.423 15.332 124.011 14.156 125.187 13.34C126.387 12.5 127.947 12.08 129.867 12.08C131.331 12.08 132.663 12.296 133.863 12.728C135.063 13.16 136.215 13.688 137.319 14.312L135.483 18.452C134.739 17.78 133.887 17.24 132.927 16.832C131.967 16.4 131.127 16.184 130.407 16.184C129.951 16.184 129.615 16.268 129.399 16.436C129.207 16.604 129.111 16.808 129.111 17.048C129.111 17.552 129.435 17.924 130.083 18.164C130.731 18.38 131.715 18.74 133.035 19.244C133.851 19.556 134.619 19.904 135.339 20.288C136.059 20.672 136.635 21.188 137.067 21.836C137.523 22.46 137.751 23.288 137.751 24.32C137.751 26.192 137.187 27.572 136.059 28.46C134.955 29.348 133.383 29.792 131.343 29.792C129.495 29.792 127.839 29.528 126.375 29C124.911 28.472 123.519 27.788 122.199 26.948L124.467 22.7ZM138.711 12.44H141.699V6.68H147.639V12.44H150.627V17.48H147.639V29H141.699V17.48H138.711V12.44ZM187.874 16.94L192.302 3.8H200.654L189.458 30.548L181.142 16.652L172.862 30.548L161.666 3.8H170.018L174.446 16.94L181.142 2.54L187.874 16.94ZM201.169 17.876L199.189 13.808C200.245 13.352 201.457 12.932 202.825 12.548C204.217 12.14 205.693 11.936 207.253 11.936C208.765 11.936 210.121 12.152 211.321 12.584C212.545 13.016 213.505 13.64 214.201 14.456C214.921 15.272 215.281 16.256 215.281 17.408V29H209.341V26.696C208.861 27.56 208.129 28.22 207.145 28.676C206.161 29.132 205.069 29.36 203.869 29.36C202.789 29.36 201.793 29.168 200.881 28.784C199.993 28.376 199.273 27.788 198.721 27.02C198.193 26.252 197.929 25.292 197.929 24.14C197.929 22.556 198.493 21.308 199.621 20.396C200.749 19.484 202.357 19.028 204.445 19.028C205.405 19.028 206.305 19.124 207.145 19.316C208.009 19.508 208.741 19.748 209.341 20.036V18.884C209.341 18.164 209.101 17.6 208.621 17.192C208.165 16.76 207.421 16.544 206.389 16.544C205.693 16.544 204.985 16.628 204.265 16.796C203.545 16.964 202.897 17.156 202.321 17.372C201.769 17.588 201.385 17.756 201.169 17.876ZM204.193 23.816C204.193 24.368 204.385 24.788 204.769 25.076C205.177 25.364 205.657 25.508 206.209 25.508C206.953 25.508 207.625 25.292 208.225 24.86C208.849 24.404 209.209 23.708 209.305 22.772C208.441 22.412 207.493 22.232 206.461 22.232C205.645 22.232 205.057 22.364 204.697 22.628C204.361 22.892 204.193 23.288 204.193 23.816ZM237.017 12.44L226.217 36.92H220.061L223.949 27.956L216.533 12.44H223.301L227.009 21.728L230.717 12.44H237.017ZM1.072 62.028V55.8H22.168V62.028H15.112V81H8.128V62.028H1.072ZM19.7644 72.72C19.7644 70.944 20.1844 69.408 21.0244 68.112C21.8644 66.816 23.0164 65.82 24.4804 65.124C25.9684 64.404 27.6364 64.044 29.4844 64.044C31.3564 64.044 33.0244 64.404 34.4884 65.124C35.9524 65.82 37.1044 66.816 37.9444 68.112C38.8084 69.408 39.2404 70.944 39.2404 72.72C39.2404 74.496 38.8084 76.032 37.9444 77.328C37.1044 78.6 35.9524 79.596 34.4884 80.316C33.0244 81.012 31.3564 81.36 29.4844 81.36C27.6364 81.36 25.9684 81.012 24.4804 80.316C23.0164 79.596 21.8644 78.6 21.0244 77.328C20.1844 76.032 19.7644 74.496 19.7644 72.72ZM26.1724 72.72C26.1724 73.872 26.4964 74.76 27.1444 75.384C27.8164 76.008 28.5964 76.32 29.4844 76.32C30.3724 76.32 31.1524 76.008 31.8244 75.384C32.4964 74.76 32.8324 73.872 32.8324 72.72C32.8324 71.568 32.4964 70.68 31.8244 70.056C31.1524 69.408 30.3724 69.084 29.4844 69.084C28.5964 69.084 27.8164 69.408 27.1444 70.056C26.4964 70.68 26.1724 71.568 26.1724 72.72ZM52.2848 68.4C52.2848 66.408 52.6328 64.608 53.3288 63C54.0248 61.368 54.9968 59.976 56.2448 58.824C57.5168 57.648 58.9808 56.748 60.6368 56.124C62.3168 55.476 64.1288 55.152 66.0728 55.152C68.0648 55.152 69.9008 55.476 71.5808 56.124C73.2608 56.748 74.7128 57.648 75.9368 58.824C77.1848 59.976 78.1448 61.368 78.8168 63C79.5128 64.608 79.8608 66.408 79.8608 68.4C79.8608 70.392 79.5248 72.216 78.8528 73.872C78.1808 75.504 77.2328 76.932 76.0088 78.156C74.7848 79.356 73.3208 80.292 71.6168 80.964C69.9368 81.612 68.0888 81.936 66.0728 81.936C64.0568 81.936 62.2088 81.612 60.5288 80.964C58.8488 80.292 57.3848 79.356 56.1368 78.156C54.9128 76.932 53.9648 75.504 53.2928 73.872C52.6208 72.216 52.2848 70.392 52.2848 68.4ZM59.6648 68.4C59.6648 70.44 60.2408 72.108 61.3928 73.404C62.5688 74.676 64.1288 75.312 66.0728 75.312C68.0408 75.312 69.6008 74.676 70.7528 73.404C71.9048 72.108 72.4808 70.44 72.4808 68.4C72.4808 66.36 71.9168 64.704 70.7888 63.432C69.6848 62.136 68.1128 61.488 66.0728 61.488C64.1288 61.488 62.5688 62.136 61.3928 63.432C60.2408 64.704 59.6648 66.36 59.6648 68.4ZM93.7956 70.812C93.5316 70.524 93.2316 70.296 92.8956 70.128C92.5596 69.936 92.1636 69.84 91.7076 69.84C90.9876 69.84 90.3636 70.14 89.8356 70.74C89.3316 71.316 89.0796 72.204 89.0796 73.404V81H82.9956V64.44H89.0796V66.564C89.6076 65.772 90.2556 65.148 91.0236 64.692C91.7916 64.236 92.5956 64.008 93.4356 64.008C94.0356 64.008 94.6116 64.152 95.1636 64.44C95.7156 64.728 96.1236 65.064 96.3876 65.448L93.7956 70.812ZM97.6707 72.72C97.6707 70.824 98.0427 69.24 98.7867 67.968C99.5547 66.696 100.527 65.736 101.703 65.088C102.879 64.416 104.127 64.08 105.447 64.08C107.871 64.08 109.755 65.052 111.099 66.996V52.92H117.327V81H111.099V78.444C109.755 80.388 107.871 81.36 105.447 81.36C104.127 81.36 102.879 81.036 101.703 80.388C100.527 79.716 99.5547 78.744 98.7867 77.472C98.0427 76.2 97.6707 74.616 97.6707 72.72ZM104.223 72.72C104.223 73.824 104.559 74.724 105.231 75.42C105.927 76.116 106.743 76.464 107.679 76.464C108.519 76.464 109.299 76.14 110.019 75.492C110.739 74.82 111.099 73.896 111.099 72.72C111.099 71.544 110.739 70.632 110.019 69.984C109.299 69.312 108.519 68.976 107.679 68.976C106.743 68.976 105.927 69.324 105.231 70.02C104.559 70.716 104.223 71.616 104.223 72.72ZM130.246 81.36C127.174 81.36 124.762 80.592 123.01 79.056C121.258 77.496 120.382 75.384 120.382 72.72C120.382 70.008 121.234 67.896 122.938 66.384C124.642 64.848 127.006 64.08 130.03 64.08C133.03 64.08 135.322 64.8 136.906 66.24C138.514 67.68 139.318 69.744 139.318 72.432C139.318 72.72 139.306 73.008 139.282 73.296C139.282 73.56 139.27 73.8 139.246 74.016H126.718C127.054 76.056 128.158 77.076 130.03 77.076C131.854 77.076 133.126 76.44 133.846 75.168L139.462 76.284C137.686 79.668 134.614 81.36 130.246 81.36ZM129.886 68.04C128.182 68.04 127.15 68.964 126.79 70.812H132.658C132.61 69.948 132.334 69.276 131.83 68.796C131.326 68.292 130.678 68.04 129.886 68.04ZM153.315 70.812C153.051 70.524 152.751 70.296 152.415 70.128C152.079 69.936 151.683 69.84 151.227 69.84C150.507 69.84 149.883 70.14 149.355 70.74C148.851 71.316 148.599 72.204 148.599 73.404V81H142.515V64.44H148.599V66.564C149.127 65.772 149.775 65.148 150.543 64.692C151.311 64.236 152.115 64.008 152.955 64.008C153.555 64.008 154.131 64.152 154.683 64.44C155.235 64.728 155.643 65.064 155.907 65.448L153.315 70.812ZM169.459 55.8H185.479V61.74H176.155V66.024H185.119V71.532H176.155V81H169.459V55.8ZM187.389 72.72C187.389 70.944 187.809 69.408 188.649 68.112C189.489 66.816 190.641 65.82 192.105 65.124C193.593 64.404 195.261 64.044 197.109 64.044C198.981 64.044 200.649 64.404 202.113 65.124C203.577 65.82 204.729 66.816 205.569 68.112C206.433 69.408 206.865 70.944 206.865 72.72C206.865 74.496 206.433 76.032 205.569 77.328C204.729 78.6 203.577 79.596 202.113 80.316C200.649 81.012 198.981 81.36 197.109 81.36C195.261 81.36 193.593 81.012 192.105 80.316C190.641 79.596 189.489 78.6 188.649 77.328C187.809 76.032 187.389 74.496 187.389 72.72ZM193.797 72.72C193.797 73.872 194.121 74.76 194.769 75.384C195.441 76.008 196.221 76.32 197.109 76.32C197.997 76.32 198.777 76.008 199.449 75.384C200.121 74.76 200.457 73.872 200.457 72.72C200.457 71.568 200.121 70.68 199.449 70.056C198.777 69.408 197.997 69.084 197.109 69.084C196.221 69.084 195.441 69.408 194.769 70.056C194.121 70.68 193.797 71.568 193.797 72.72ZM209.081 72.72C209.081 70.944 209.501 69.408 210.341 68.112C211.181 66.816 212.333 65.82 213.797 65.124C215.285 64.404 216.953 64.044 218.801 64.044C220.673 64.044 222.341 64.404 223.805 65.124C225.269 65.82 226.421 66.816 227.261 68.112C228.125 69.408 228.557 70.944 228.557 72.72C228.557 74.496 228.125 76.032 227.261 77.328C226.421 78.6 225.269 79.596 223.805 80.316C222.341 81.012 220.673 81.36 218.801 81.36C216.953 81.36 215.285 81.012 213.797 80.316C212.333 79.596 211.181 78.6 210.341 77.328C209.501 76.032 209.081 74.496 209.081 72.72ZM215.489 72.72C215.489 73.872 215.813 74.76 216.461 75.384C217.133 76.008 217.913 76.32 218.801 76.32C219.689 76.32 220.469 76.008 221.141 75.384C221.813 74.76 222.149 73.872 222.149 72.72C222.149 71.568 221.813 70.68 221.141 70.056C220.469 69.408 219.689 69.084 218.801 69.084C217.913 69.084 217.133 69.408 216.461 70.056C215.813 70.68 215.489 71.568 215.489 72.72ZM230.772 72.72C230.772 70.824 231.144 69.24 231.888 67.968C232.656 66.696 233.628 65.736 234.804 65.088C235.98 64.416 237.228 64.08 238.548 64.08C240.972 64.08 242.856 65.052 244.2 66.996V52.92H250.428V81H244.2V78.444C242.856 80.388 240.972 81.36 238.548 81.36C237.228 81.36 235.98 81.036 234.804 80.388C233.628 79.716 232.656 78.744 231.888 77.472C231.144 76.2 230.772 74.616 230.772 72.72ZM237.324 72.72C237.324 73.824 237.66 74.724 238.332 75.42C239.028 76.116 239.844 76.464 240.78 76.464C241.62 76.464 242.4 76.14 243.12 75.492C243.84 74.82 244.2 73.896 244.2 72.72C244.2 71.544 243.84 70.632 243.12 69.984C242.4 69.312 241.62 68.976 240.78 68.976C239.844 68.976 239.028 69.324 238.332 70.02C237.66 70.716 237.324 71.616 237.324 72.72Z" fill="black"/>
<path d="M20.44 133L18.316 128.932H10.9L8.812 133H0.892L14.608 106.108L28.36 133H20.44ZM14.608 118.132L12.124 123.784H17.092L14.608 118.132ZM28.4261 116.44H31.4141V110.68H37.3541V116.44H40.3421V121.48H37.3541V133H31.4141V121.48H28.4261V116.44ZM77.5886 120.94L82.0166 107.8H90.3686L79.1726 134.548L70.8566 120.652L62.5766 134.548L51.3806 107.8H59.7326L64.1606 120.94L70.8566 106.54L77.5886 120.94ZM88.6707 124.72C88.6707 122.944 89.0907 121.408 89.9307 120.112C90.7707 118.816 91.9227 117.82 93.3867 117.124C94.8747 116.404 96.5427 116.044 98.3907 116.044C100.263 116.044 101.931 116.404 103.395 117.124C104.859 117.82 106.011 118.816 106.851 120.112C107.715 121.408 108.147 122.944 108.147 124.72C108.147 126.496 107.715 128.032 106.851 129.328C106.011 130.6 104.859 131.596 103.395 132.316C101.931 133.012 100.263 133.36 98.3907 133.36C96.5427 133.36 94.8747 133.012 93.3867 132.316C91.9227 131.596 90.7707 130.6 89.9307 129.328C89.0907 128.032 88.6707 126.496 88.6707 124.72ZM95.0787 124.72C95.0787 125.872 95.4027 126.76 96.0507 127.384C96.7227 128.008 97.5027 128.32 98.3907 128.32C99.2787 128.32 100.059 128.008 100.731 127.384C101.403 126.76 101.739 125.872 101.739 124.72C101.739 123.568 101.403 122.68 100.731 122.056C100.059 121.408 99.2787 121.084 98.3907 121.084C97.5027 121.084 96.7227 121.408 96.0507 122.056C95.4027 122.68 95.0787 123.568 95.0787 124.72ZM122.026 122.812C121.762 122.524 121.462 122.296 121.126 122.128C120.79 121.936 120.394 121.84 119.938 121.84C119.218 121.84 118.594 122.14 118.066 122.74C117.562 123.316 117.31 124.204 117.31 125.404V133H111.226V116.44H117.31V118.564C117.838 117.772 118.486 117.148 119.254 116.692C120.022 116.236 120.826 116.008 121.666 116.008C122.266 116.008 122.842 116.152 123.394 116.44C123.946 116.728 124.354 117.064 124.618 117.448L122.026 122.812ZM138.645 116.44H146.025L138.969 123.28L146.745 133H139.509L132.669 124.576V133H126.729V104.92H132.669V122.272L138.645 116.44Z" fill="#FFBB00"/>
</svg>
