<svg width="322" height="133" viewBox="0 0 322 133" fill="none" xmlns="http://www.w3.org/2000/svg">
<path d="M12.6597 27.3513H3.22774V2.15132H12.6597C15.5157 2.15132 17.9637 2.66732 20.0037 3.69932C22.0677 4.70732 23.6517 6.14732 24.7557 8.01932C25.8837 9.89132 26.4477 12.1353 26.4477 14.7513C26.4477 17.3673 25.8837 19.6113 24.7557 21.4833C23.6517 23.3553 22.0677 24.8073 20.0037 25.8393C17.9637 26.8473 15.5157 27.3513 12.6597 27.3513ZM12.3717 8.27132H10.4637V21.2313H12.3717C13.4997 21.2313 14.5797 21.0633 15.6117 20.7273C16.6437 20.3673 17.4957 19.7193 18.1677 18.7833C18.8397 17.8473 19.1757 16.5033 19.1757 14.7513C19.1757 12.9993 18.8397 11.6553 18.1677 10.7193C17.4957 9.78332 16.6437 9.14732 15.6117 8.81132C14.5797 8.45132 13.4997 8.27132 12.3717 8.27132ZM29.1486 4.77932C29.1486 3.81932 29.4846 3.03932 30.1566 2.43932C30.8526 1.83932 31.6806 1.53932 32.6406 1.53932C33.6246 1.53932 34.4526 1.83932 35.1246 2.43932C35.8206 3.03932 36.1686 3.81932 36.1686 4.77932C36.1686 5.73932 35.8206 6.51932 35.1246 7.11932C34.4526 7.69532 33.6246 7.98332 32.6406 7.98332C31.6806 7.98332 30.8526 7.69532 30.1566 7.11932C29.4846 6.51932 29.1486 5.73932 29.1486 4.77932ZM29.6526 10.7913H35.6286V27.3513H29.6526V10.7913ZM48.7056 27.7113C45.6336 27.7113 43.2216 26.9433 41.4696 25.4073C39.7176 23.8473 38.8416 21.7353 38.8416 19.0713C38.8416 16.3593 39.6936 14.2473 41.3976 12.7353C43.1016 11.1993 45.4656 10.4313 48.4896 10.4313C51.4896 10.4313 53.7816 11.1513 55.3656 12.5913C56.9736 14.0313 57.7776 16.0953 57.7776 18.7833C57.7776 19.0713 57.7656 19.3593 57.7416 19.6473C57.7416 19.9113 57.7296 20.1513 57.7056 20.3673H45.1776C45.5136 22.4073 46.6176 23.4273 48.4896 23.4273C50.3136 23.4273 51.5856 22.7913 52.3056 21.5193L57.9216 22.6353C56.1456 26.0193 53.0736 27.7113 48.7056 27.7113ZM48.3456 14.3913C46.6416 14.3913 45.6096 15.3153 45.2496 17.1633H51.1176C51.0696 16.2993 50.7936 15.6273 50.2896 15.1473C49.7856 14.6433 49.1376 14.3913 48.3456 14.3913ZM93.2961 20.3313C93.2961 22.8513 92.3841 24.6513 90.5601 25.7313C88.7601 26.8113 86.2881 27.3513 83.1441 27.3513H72.3801V2.15132H82.4961C84.2721 2.15132 85.8681 2.39132 87.2841 2.87132C88.7001 3.35132 89.8161 4.07132 90.6321 5.03132C91.4481 5.99132 91.8561 7.17932 91.8561 8.59532C91.8561 9.79532 91.5321 10.8513 90.8841 11.7633C90.2601 12.6513 89.3961 13.3593 88.2921 13.8873C89.7081 14.4153 90.8961 15.2073 91.8561 16.2633C92.8161 17.3193 93.2961 18.6753 93.2961 20.3313ZM81.6321 7.47932H79.3641V12.1233H81.6321C82.5921 12.1233 83.3241 11.9073 83.8281 11.4753C84.3321 11.0433 84.5841 10.4553 84.5841 9.71132C84.5841 8.22332 83.6001 7.47932 81.6321 7.47932ZM79.3641 22.0233H82.2801C83.3121 22.0233 84.1881 21.8553 84.9081 21.5193C85.6521 21.1593 86.0241 20.4153 86.0241 19.2873C86.0241 18.3273 85.6521 17.6793 84.9081 17.3433C84.1881 17.0073 83.3121 16.8393 82.2801 16.8393H79.3641V22.0233ZM105.799 27.7113C102.727 27.7113 100.315 26.9433 98.5633 25.4073C96.8113 23.8473 95.9353 21.7353 95.9353 19.0713C95.9353 16.3593 96.7873 14.2473 98.4913 12.7353C100.195 11.1993 102.559 10.4313 105.583 10.4313C108.583 10.4313 110.875 11.1513 112.459 12.5913C114.067 14.0313 114.871 16.0953 114.871 18.7833C114.871 19.0713 114.859 19.3593 114.835 19.6473C114.835 19.9113 114.823 20.1513 114.799 20.3673H102.271C102.607 22.4073 103.711 23.4273 105.583 23.4273C107.407 23.4273 108.679 22.7913 109.399 21.5193L115.015 22.6353C113.239 26.0193 110.167 27.7113 105.799 27.7113ZM105.439 14.3913C103.735 14.3913 102.703 15.3153 102.343 17.1633H108.211C108.163 16.2993 107.887 15.6273 107.383 15.1473C106.879 14.6433 106.231 14.3913 105.439 14.3913ZM119.005 21.0513C120.493 22.2033 121.705 22.9353 122.641 23.2473C123.601 23.5593 124.309 23.7153 124.765 23.7153C125.221 23.7153 125.557 23.6193 125.773 23.4273C125.989 23.2113 126.097 22.9473 126.097 22.6353C126.097 22.3473 126.001 22.1073 125.809 21.9153C125.641 21.6993 125.305 21.4833 124.801 21.2673C124.321 21.0513 123.601 20.7873 122.641 20.4753C121.849 20.2113 121.093 19.8873 120.373 19.5033C119.653 19.0953 119.065 18.5553 118.609 17.8833C118.177 17.1873 117.961 16.2993 117.961 15.2193C117.961 13.6833 118.549 12.5073 119.725 11.6913C120.925 10.8513 122.485 10.4313 124.405 10.4313C125.869 10.4313 127.201 10.6473 128.401 11.0793C129.601 11.5113 130.753 12.0393 131.857 12.6633L130.021 16.8033C129.277 16.1313 128.425 15.5913 127.465 15.1833C126.505 14.7513 125.665 14.5353 124.945 14.5353C124.489 14.5353 124.153 14.6193 123.937 14.7873C123.745 14.9553 123.649 15.1593 123.649 15.3993C123.649 15.9033 123.973 16.2753 124.621 16.5153C125.269 16.7313 126.253 17.0913 127.573 17.5953C128.389 17.9073 129.157 18.2553 129.877 18.6393C130.597 19.0233 131.173 19.5393 131.605 20.1873C132.061 20.8113 132.289 21.6393 132.289 22.6713C132.289 24.5433 131.725 25.9233 130.597 26.8113C129.493 27.6993 127.921 28.1433 125.881 28.1433C124.033 28.1433 122.377 27.8793 120.913 27.3513C119.449 26.8233 118.057 26.1393 116.737 25.2993L119.005 21.0513ZM133.249 10.7913H136.237V5.03132H142.177V10.7913H145.165V15.8313H142.177V27.3513H136.237V15.8313H133.249V10.7913ZM156.319 27.7113C153.247 27.7113 150.835 26.9433 149.083 25.4073C147.331 23.8473 146.455 21.7353 146.455 19.0713C146.455 16.3593 147.307 14.2473 149.011 12.7353C150.715 11.1993 153.079 10.4313 156.103 10.4313C159.103 10.4313 161.395 11.1513 162.979 12.5913C164.587 14.0313 165.391 16.0953 165.391 18.7833C165.391 19.0713 165.379 19.3593 165.355 19.6473C165.355 19.9113 165.343 20.1513 165.319 20.3673H152.791C153.127 22.4073 154.231 23.4273 156.103 23.4273C157.927 23.4273 159.199 22.7913 159.919 21.5193L165.535 22.6353C163.759 26.0193 160.687 27.7113 156.319 27.7113ZM155.959 14.3913C154.255 14.3913 153.223 15.3153 152.863 17.1633H158.731C158.683 16.2993 158.407 15.6273 157.903 15.1473C157.399 14.6433 156.751 14.3913 155.959 14.3913ZM196.841 27.3513L194.717 23.2833H187.301L185.213 27.3513H177.293L191.009 0.459317L204.761 27.3513H196.841ZM191.009 12.4833L188.525 18.1353H193.493L191.009 12.4833ZM217.427 17.1633C217.163 16.8753 216.863 16.6473 216.527 16.4793C216.191 16.2873 215.795 16.1913 215.339 16.1913C214.619 16.1913 213.995 16.4913 213.467 17.0913C212.963 17.6673 212.711 18.5553 212.711 19.7553V27.3513H206.627V10.7913H212.711V12.9153C213.239 12.1233 213.887 11.4993 214.655 11.0433C215.423 10.5873 216.227 10.3593 217.067 10.3593C217.667 10.3593 218.243 10.5033 218.795 10.7913C219.347 11.0793 219.755 11.4153 220.019 11.7993L217.427 17.1633ZM220.367 10.7913H223.355V5.03132H229.295V10.7913H232.283V15.8313H229.295V27.3513H223.355V15.8313H220.367V10.7913ZM236.488 23.3913L242.716 24.5793L238 33.5793L233.32 32.7153L236.488 23.3913ZM3.22774 106.151H20.6877V111.803H9.92374V115.511H19.9677V120.983H9.92374V125.699H20.6877V131.351H3.22774V106.151ZM25.8408 125.051C27.3288 126.203 28.5408 126.935 29.4768 127.247C30.4368 127.559 31.1448 127.715 31.6008 127.715C32.0568 127.715 32.3928 127.619 32.6088 127.427C32.8248 127.211 32.9328 126.947 32.9328 126.635C32.9328 126.347 32.8368 126.107 32.6448 125.915C32.4768 125.699 32.1408 125.483 31.6368 125.267C31.1568 125.051 30.4368 124.787 29.4768 124.475C28.6848 124.211 27.9288 123.887 27.2088 123.503C26.4888 123.095 25.9008 122.555 25.4448 121.883C25.0128 121.187 24.7968 120.299 24.7968 119.219C24.7968 117.683 25.3848 116.507 26.5608 115.691C27.7608 114.851 29.3208 114.431 31.2408 114.431C32.7048 114.431 34.0368 114.647 35.2368 115.079C36.4368 115.511 37.5888 116.039 38.6928 116.663L36.8568 120.803C36.1128 120.131 35.2608 119.591 34.3008 119.183C33.3408 118.751 32.5008 118.535 31.7808 118.535C31.3248 118.535 30.9888 118.619 30.7728 118.787C30.5808 118.955 30.4848 119.159 30.4848 119.399C30.4848 119.903 30.8088 120.275 31.4568 120.515C32.1048 120.731 33.0888 121.091 34.4088 121.595C35.2248 121.907 35.9928 122.255 36.7128 122.639C37.4328 123.023 38.0088 123.539 38.4408 124.187C38.8968 124.811 39.1248 125.639 39.1248 126.671C39.1248 128.543 38.5608 129.923 37.4328 130.811C36.3288 131.699 34.7568 132.143 32.7168 132.143C30.8688 132.143 29.2128 131.879 27.7488 131.351C26.2848 130.823 24.8928 130.139 23.5728 129.299L25.8408 125.051ZM42.8213 125.051C44.3093 126.203 45.5213 126.935 46.4573 127.247C47.4173 127.559 48.1253 127.715 48.5813 127.715C49.0373 127.715 49.3733 127.619 49.5893 127.427C49.8053 127.211 49.9133 126.947 49.9133 126.635C49.9133 126.347 49.8173 126.107 49.6253 125.915C49.4573 125.699 49.1213 125.483 48.6173 125.267C48.1373 125.051 47.4173 124.787 46.4573 124.475C45.6653 124.211 44.9093 123.887 44.1893 123.503C43.4693 123.095 42.8813 122.555 42.4253 121.883C41.9933 121.187 41.7773 120.299 41.7773 119.219C41.7773 117.683 42.3653 116.507 43.5413 115.691C44.7413 114.851 46.3013 114.431 48.2213 114.431C49.6853 114.431 51.0173 114.647 52.2173 115.079C53.4173 115.511 54.5693 116.039 55.6733 116.663L53.8373 120.803C53.0933 120.131 52.2413 119.591 51.2813 119.183C50.3213 118.751 49.4813 118.535 48.7613 118.535C48.3053 118.535 47.9693 118.619 47.7533 118.787C47.5613 118.955 47.4653 119.159 47.4653 119.399C47.4653 119.903 47.7893 120.275 48.4373 120.515C49.0853 120.731 50.0693 121.091 51.3893 121.595C52.2053 121.907 52.9733 122.255 53.6933 122.639C54.4133 123.023 54.9893 123.539 55.4213 124.187C55.8773 124.811 56.1053 125.639 56.1053 126.671C56.1053 128.543 55.5413 129.923 54.4133 130.811C53.3093 131.699 51.7373 132.143 49.6973 132.143C47.8493 132.143 46.1933 131.879 44.7293 131.351C43.2653 130.823 41.8733 130.139 40.5533 129.299L42.8213 125.051ZM67.8657 131.711C64.7937 131.711 62.3817 130.943 60.6297 129.407C58.8777 127.847 58.0017 125.735 58.0017 123.071C58.0017 120.359 58.8537 118.247 60.5577 116.735C62.2617 115.199 64.6257 114.431 67.6497 114.431C70.6497 114.431 72.9417 115.151 74.5257 116.591C76.1337 118.031 76.9377 120.095 76.9377 122.783C76.9377 123.071 76.9257 123.359 76.9017 123.647C76.9017 123.911 76.8897 124.151 76.8657 124.367H64.3377C64.6737 126.407 65.7777 127.427 67.6497 127.427C69.4737 127.427 70.7457 126.791 71.4657 125.519L77.0817 126.635C75.3057 130.019 72.2337 131.711 67.8657 131.711ZM67.5057 118.391C65.8017 118.391 64.7697 119.315 64.4097 121.163H70.2777C70.2297 120.299 69.9537 119.627 69.4497 119.147C68.9457 118.643 68.2977 118.391 67.5057 118.391ZM90.8993 121.271C90.8993 120.407 90.7553 119.747 90.4673 119.291C90.1793 118.811 89.6273 118.571 88.8113 118.571C88.0673 118.571 87.4673 118.799 87.0113 119.255C86.5793 119.687 86.3633 120.359 86.3633 121.271V131.351H80.1353V114.791H86.3633V117.239C86.8193 116.351 87.4553 115.655 88.2713 115.151C89.1113 114.647 90.1673 114.395 91.4393 114.395C93.5753 114.395 95.0993 114.947 96.0113 116.051C96.9473 117.131 97.4153 118.655 97.4153 120.623V131.351H90.8993V121.271ZM112.451 112.379V106.151H132.863L121.343 125.411H131.423V131.351H110.435L121.739 112.379H112.451ZM140.686 124.871C140.686 125.711 140.83 126.371 141.118 126.851C141.406 127.331 141.946 127.571 142.738 127.571C143.506 127.571 144.106 127.355 144.538 126.923C144.994 126.467 145.222 125.783 145.222 124.871V114.791H151.45V131.351H145.222V128.903C144.742 129.767 144.082 130.463 143.242 130.991C142.426 131.495 141.394 131.747 140.146 131.747C137.986 131.747 136.45 131.207 135.538 130.127C134.626 129.023 134.17 127.487 134.17 125.519V114.791H140.686V124.871ZM187.726 124.331C187.726 126.851 186.814 128.651 184.99 129.731C183.19 130.811 180.718 131.351 177.574 131.351H166.81V106.151H176.926C178.702 106.151 180.298 106.391 181.714 106.871C183.13 107.351 184.246 108.071 185.062 109.031C185.878 109.991 186.286 111.179 186.286 112.595C186.286 113.795 185.962 114.851 185.314 115.763C184.69 116.651 183.826 117.359 182.722 117.887C184.138 118.415 185.326 119.207 186.286 120.263C187.246 121.319 187.726 122.675 187.726 124.331ZM176.062 111.479H173.794V116.123H176.062C177.022 116.123 177.754 115.907 178.258 115.475C178.762 115.043 179.014 114.455 179.014 113.711C179.014 112.223 178.03 111.479 176.062 111.479ZM173.794 126.023H176.71C177.742 126.023 178.618 125.855 179.338 125.519C180.082 125.159 180.454 124.415 180.454 123.287C180.454 122.327 180.082 121.679 179.338 121.343C178.618 121.007 177.742 120.839 176.71 120.839H173.794V126.023ZM200.229 131.711C197.157 131.711 194.745 130.943 192.993 129.407C191.241 127.847 190.365 125.735 190.365 123.071C190.365 120.359 191.217 118.247 192.921 116.735C194.625 115.199 196.989 114.431 200.013 114.431C203.013 114.431 205.305 115.151 206.889 116.591C208.497 118.031 209.301 120.095 209.301 122.783C209.301 123.071 209.289 123.359 209.265 123.647C209.265 123.911 209.253 124.151 209.229 124.367H196.701C197.037 126.407 198.141 127.427 200.013 127.427C201.837 127.427 203.109 126.791 203.829 125.519L209.445 126.635C207.669 130.019 204.597 131.711 200.229 131.711ZM199.869 118.391C198.165 118.391 197.133 119.315 196.773 121.163H202.641C202.593 120.299 202.317 119.627 201.813 119.147C201.309 118.643 200.661 118.391 199.869 118.391ZM213.435 125.051C214.923 126.203 216.135 126.935 217.071 127.247C218.031 127.559 218.739 127.715 219.195 127.715C219.651 127.715 219.987 127.619 220.203 127.427C220.419 127.211 220.527 126.947 220.527 126.635C220.527 126.347 220.431 126.107 220.239 125.915C220.071 125.699 219.735 125.483 219.231 125.267C218.751 125.051 218.031 124.787 217.071 124.475C216.279 124.211 215.523 123.887 214.803 123.503C214.083 123.095 213.495 122.555 213.039 121.883C212.607 121.187 212.391 120.299 212.391 119.219C212.391 117.683 212.979 116.507 214.155 115.691C215.355 114.851 216.915 114.431 218.835 114.431C220.299 114.431 221.631 114.647 222.831 115.079C224.031 115.511 225.183 116.039 226.287 116.663L224.451 120.803C223.707 120.131 222.855 119.591 221.895 119.183C220.935 118.751 220.095 118.535 219.375 118.535C218.919 118.535 218.583 118.619 218.367 118.787C218.175 118.955 218.079 119.159 218.079 119.399C218.079 119.903 218.403 120.275 219.051 120.515C219.699 120.731 220.683 121.091 222.003 121.595C222.819 121.907 223.587 122.255 224.307 122.639C225.027 123.023 225.603 123.539 226.035 124.187C226.491 124.811 226.719 125.639 226.719 126.671C226.719 128.543 226.155 129.923 225.027 130.811C223.923 131.699 222.351 132.143 220.311 132.143C218.463 132.143 216.807 131.879 215.343 131.351C213.879 130.823 212.487 130.139 211.167 129.299L213.435 125.051ZM227.679 114.791H230.667V109.031H236.607V114.791H239.595V119.831H236.607V131.351H230.667V119.831H227.679V114.791ZM250.749 131.711C247.677 131.711 245.265 130.943 243.513 129.407C241.761 127.847 240.885 125.735 240.885 123.071C240.885 120.359 241.737 118.247 243.441 116.735C245.145 115.199 247.509 114.431 250.533 114.431C253.533 114.431 255.825 115.151 257.409 116.591C259.017 118.031 259.821 120.095 259.821 122.783C259.821 123.071 259.809 123.359 259.785 123.647C259.785 123.911 259.773 124.151 259.749 124.367H247.221C247.557 126.407 248.661 127.427 250.533 127.427C252.357 127.427 253.629 126.791 254.349 125.519L259.965 126.635C258.189 130.019 255.117 131.711 250.749 131.711ZM250.389 118.391C248.685 118.391 247.653 119.315 247.293 121.163H253.161C253.113 120.299 252.837 119.627 252.333 119.147C251.829 118.643 251.181 118.391 250.389 118.391ZM263.018 103.271H269.246V131.351H263.018V103.271ZM273.178 103.271H279.406V131.351H273.178V103.271ZM292.338 131.711C289.266 131.711 286.854 130.943 285.102 129.407C283.35 127.847 282.474 125.735 282.474 123.071C282.474 120.359 283.326 118.247 285.03 116.735C286.734 115.199 289.098 114.431 292.122 114.431C295.122 114.431 297.414 115.151 298.998 116.591C300.606 118.031 301.41 120.095 301.41 122.783C301.41 123.071 301.398 123.359 301.374 123.647C301.374 123.911 301.362 124.151 301.338 124.367H288.81C289.146 126.407 290.25 127.427 292.122 127.427C293.946 127.427 295.218 126.791 295.938 125.519L301.554 126.635C299.778 130.019 296.706 131.711 292.338 131.711ZM291.978 118.391C290.274 118.391 289.242 119.315 288.882 121.163H294.75C294.702 120.299 294.426 119.627 293.922 119.147C293.418 118.643 292.77 118.391 291.978 118.391ZM315.372 121.271C315.372 120.407 315.228 119.747 314.94 119.291C314.652 118.811 314.1 118.571 313.284 118.571C312.54 118.571 311.94 118.799 311.484 119.255C311.052 119.687 310.836 120.359 310.836 121.271V131.351H304.608V114.791H310.836V117.239C311.292 116.351 311.928 115.655 312.744 115.151C313.584 114.647 314.64 114.395 315.912 114.395C318.048 114.395 319.572 114.947 320.484 116.051C321.42 117.131 321.888 118.655 321.888 120.623V131.351H315.372V121.271Z" fill="black"/>
<path d="M20.0757 79.3513L17.9517 75.2833H10.5357L8.44774 79.3513H0.527742L14.2437 52.4593L27.9957 79.3513H20.0757ZM14.2437 64.4833L11.7597 70.1353H16.7277L14.2437 64.4833ZM55.8898 68.6233V79.3513H49.6618V69.2713C49.6618 68.4073 49.5178 67.7473 49.2298 67.2913C48.9658 66.8113 48.5098 66.5713 47.8618 66.5713C47.2618 66.5713 46.7698 66.7993 46.3858 67.2553C46.0258 67.6873 45.8458 68.3593 45.8458 69.2713V79.3513H39.6178V69.2713C39.6178 68.4073 39.4738 67.7473 39.1858 67.2913C38.9218 66.8113 38.4658 66.5713 37.8178 66.5713C37.2178 66.5713 36.7258 66.7993 36.3418 67.2553C35.9818 67.6873 35.8018 68.3593 35.8018 69.2713V79.3513H29.8618V62.7913H35.8018V65.2753C36.2578 64.3873 36.8818 63.6913 37.6738 63.1873C38.4898 62.6593 39.4858 62.3953 40.6618 62.3953C41.9818 62.3953 43.0138 62.6233 43.7578 63.0793C44.5258 63.5113 45.0658 64.1593 45.3778 65.0233C45.9778 64.2073 46.7338 63.5713 47.6458 63.1153C48.5578 62.6353 49.5778 62.3953 50.7058 62.3953C52.6978 62.3953 54.0538 62.9353 54.7738 64.0153C55.5178 65.0953 55.8898 66.6313 55.8898 68.6233ZM88.0679 79.3513L85.9439 75.2833H78.5279L76.4399 79.3513H68.5199L82.2359 52.4593L95.9879 79.3513H88.0679ZM82.2359 64.4833L79.7519 70.1353H84.7199L82.2359 64.4833ZM108.654 69.1633C108.39 68.8753 108.09 68.6473 107.754 68.4793C107.418 68.2873 107.022 68.1913 106.566 68.1913C105.846 68.1913 105.222 68.4913 104.694 69.0913C104.19 69.6673 103.938 70.5553 103.938 71.7553V79.3513H97.854V62.7913H103.938V64.9153C104.466 64.1233 105.114 63.4993 105.882 63.0433C106.65 62.5873 107.454 62.3593 108.294 62.3593C108.894 62.3593 109.47 62.5033 110.022 62.7913C110.574 63.0793 110.982 63.4153 111.246 63.7993L108.654 69.1633ZM133.013 71.0713C133.013 72.9673 132.629 74.5513 131.861 75.8233C131.117 77.0953 130.145 78.0673 128.945 78.7393C127.769 79.3873 126.533 79.7113 125.237 79.7113C122.813 79.7113 120.929 78.7393 119.585 76.7953V79.3513H113.357V51.2713H119.585V65.3473C120.929 63.4033 122.813 62.4313 125.237 62.4313C126.533 62.4313 127.769 62.7673 128.945 63.4393C130.145 64.0873 131.117 65.0473 131.861 66.3193C132.629 67.5913 133.013 69.1753 133.013 71.0713ZM126.461 71.0713C126.461 69.9673 126.113 69.0673 125.417 68.3713C124.745 67.6753 123.929 67.3273 122.969 67.3273C122.153 67.3273 121.385 67.6633 120.665 68.3353C119.945 68.9833 119.585 69.8953 119.585 71.0713C119.585 72.2473 119.945 73.1713 120.665 73.8433C121.385 74.4913 122.153 74.8153 122.969 74.8153C123.929 74.8153 124.745 74.4673 125.417 73.7713C126.113 73.0753 126.461 72.1753 126.461 71.0713ZM145.104 79.7113C142.032 79.7113 139.62 78.9433 137.868 77.4073C136.116 75.8473 135.24 73.7353 135.24 71.0713C135.24 68.3593 136.092 66.2473 137.796 64.7353C139.5 63.1993 141.864 62.4313 144.888 62.4313C147.888 62.4313 150.18 63.1513 151.764 64.5913C153.372 66.0313 154.176 68.0953 154.176 70.7833C154.176 71.0713 154.164 71.3593 154.14 71.6473C154.14 71.9113 154.128 72.1513 154.104 72.3673H141.576C141.912 74.4073 143.016 75.4273 144.888 75.4273C146.712 75.4273 147.984 74.7913 148.704 73.5193L154.32 74.6353C152.544 78.0193 149.472 79.7113 145.104 79.7113ZM144.744 66.3913C143.04 66.3913 142.008 67.3153 141.648 69.1633H147.516C147.468 68.2993 147.192 67.6273 146.688 67.1473C146.184 66.6433 145.536 66.3913 144.744 66.3913ZM156.942 56.7793C156.942 55.8193 157.278 55.0393 157.95 54.4393C158.646 53.8393 159.474 53.5393 160.434 53.5393C161.418 53.5393 162.246 53.8393 162.918 54.4393C163.614 55.0393 163.962 55.8193 163.962 56.7793C163.962 57.7393 163.614 58.5193 162.918 59.1193C162.246 59.6953 161.418 59.9833 160.434 59.9833C159.474 59.9833 158.646 59.6953 157.95 59.1193C157.278 58.5193 156.942 57.7393 156.942 56.7793ZM157.446 62.7913H163.422V79.3513H157.446V62.7913ZM165.699 62.7913H168.687V57.0313H174.627V62.7913H177.615V67.8313H174.627V79.3513H168.687V67.8313H165.699V62.7913ZM180.704 73.0513C182.192 74.2033 183.404 74.9353 184.34 75.2473C185.3 75.5593 186.008 75.7153 186.464 75.7153C186.92 75.7153 187.256 75.6193 187.472 75.4273C187.688 75.2113 187.796 74.9473 187.796 74.6353C187.796 74.3473 187.7 74.1073 187.508 73.9153C187.34 73.6993 187.004 73.4833 186.5 73.2673C186.02 73.0513 185.3 72.7873 184.34 72.4753C183.548 72.2113 182.792 71.8873 182.072 71.5033C181.352 71.0953 180.764 70.5553 180.308 69.8833C179.876 69.1873 179.66 68.2993 179.66 67.2193C179.66 65.6833 180.248 64.5073 181.424 63.6913C182.624 62.8513 184.184 62.4313 186.104 62.4313C187.568 62.4313 188.9 62.6473 190.1 63.0793C191.3 63.5113 192.452 64.0393 193.556 64.6633L191.72 68.8033C190.976 68.1313 190.124 67.5913 189.164 67.1833C188.204 66.7513 187.364 66.5353 186.644 66.5353C186.188 66.5353 185.852 66.6193 185.636 66.7873C185.444 66.9553 185.348 67.1593 185.348 67.3993C185.348 67.9033 185.672 68.2753 186.32 68.5153C186.968 68.7313 187.952 69.0913 189.272 69.5953C190.088 69.9073 190.856 70.2553 191.576 70.6393C192.296 71.0233 192.872 71.5393 193.304 72.1873C193.76 72.8113 193.988 73.6393 193.988 74.6713C193.988 76.5433 193.424 77.9233 192.296 78.8113C191.192 79.6993 189.62 80.1433 187.58 80.1433C185.732 80.1433 184.076 79.8793 182.612 79.3513C181.148 78.8233 179.756 78.1393 178.436 77.2993L180.704 73.0513ZM202.941 87.2713H196.713V62.7913H202.941V65.3833C203.517 64.3513 204.273 63.5593 205.209 63.0073C206.169 62.4313 207.297 62.1433 208.593 62.1433C209.889 62.1433 211.125 62.4793 212.301 63.1513C213.501 63.7993 214.473 64.7833 215.217 66.1033C215.985 67.4233 216.369 69.0793 216.369 71.0713C216.369 73.0633 215.985 74.7193 215.217 76.0393C214.473 77.3593 213.501 78.3553 212.301 79.0273C211.125 79.6753 209.889 79.9993 208.593 79.9993C207.297 79.9993 206.169 79.7233 205.209 79.1713C204.273 78.5953 203.517 77.7913 202.941 76.7593V87.2713ZM209.817 71.0713C209.817 69.9673 209.469 69.1153 208.773 68.5153C208.101 67.9153 207.285 67.6153 206.325 67.6153C205.509 67.6153 204.741 67.9033 204.021 68.4793C203.301 69.0313 202.941 69.8953 202.941 71.0713C202.941 72.2473 203.301 73.1233 204.021 73.6993C204.741 74.2513 205.509 74.5273 206.325 74.5273C207.285 74.5273 208.101 74.2273 208.773 73.6273C209.469 73.0273 209.817 72.1753 209.817 71.0713ZM219.459 51.2713H225.687V79.3513H219.459V51.2713ZM231.672 68.2273L229.692 64.1593C230.748 63.7033 231.96 63.2833 233.328 62.8993C234.72 62.4913 236.196 62.2873 237.756 62.2873C239.268 62.2873 240.624 62.5033 241.824 62.9353C243.048 63.3673 244.008 63.9913 244.704 64.8073C245.424 65.6233 245.784 66.6073 245.784 67.7593V79.3513H239.844V77.0473C239.364 77.9113 238.632 78.5713 237.648 79.0273C236.664 79.4833 235.572 79.7113 234.372 79.7113C233.292 79.7113 232.296 79.5193 231.384 79.1353C230.496 78.7273 229.776 78.1393 229.224 77.3713C228.696 76.6033 228.432 75.6433 228.432 74.4913C228.432 72.9073 228.996 71.6593 230.124 70.7473C231.252 69.8353 232.86 69.3793 234.948 69.3793C235.908 69.3793 236.808 69.4753 237.648 69.6673C238.512 69.8593 239.244 70.0993 239.844 70.3873V69.2353C239.844 68.5153 239.604 67.9513 239.124 67.5433C238.668 67.1113 237.924 66.8953 236.892 66.8953C236.196 66.8953 235.488 66.9793 234.768 67.1473C234.048 67.3153 233.4 67.5073 232.824 67.7233C232.272 67.9393 231.888 68.1073 231.672 68.2273ZM234.696 74.1673C234.696 74.7193 234.888 75.1393 235.272 75.4273C235.68 75.7153 236.16 75.8593 236.712 75.8593C237.456 75.8593 238.128 75.6433 238.728 75.2113C239.352 74.7553 239.712 74.0593 239.808 73.1233C238.944 72.7633 237.996 72.5833 236.964 72.5833C236.148 72.5833 235.56 72.7153 235.2 72.9793C234.864 73.2433 234.696 73.6393 234.696 74.1673ZM247.824 62.7913H250.812V57.0313H256.752V62.7913H259.74V67.8313H256.752V79.3513H250.812V67.8313H247.824V62.7913ZM268.697 68.4073H262.109V62.7913H278.849L271.181 73.7353H277.553V79.3513H260.453L268.697 68.4073Z" fill="#FFBB00"/>
</svg>
