<svg width="320" height="132" viewBox="0 0 320 132" fill="none" xmlns="http://www.w3.org/2000/svg">
<path d="M50.0396 27.1323H40.6076V1.93232H50.0396C52.8956 1.93232 55.3436 2.44832 57.3836 3.48032C59.4476 4.48832 61.0316 5.92832 62.1356 7.80032C63.2636 9.67232 63.8276 11.9163 63.8276 14.5323C63.8276 17.1483 63.2636 19.3923 62.1356 21.2643C61.0316 23.1363 59.4476 24.5883 57.3836 25.6203C55.3436 26.6283 52.8956 27.1323 50.0396 27.1323ZM49.7516 8.05232H47.8436V21.0123H49.7516C50.8796 21.0123 51.9596 20.8443 52.9916 20.5083C54.0236 20.1483 54.8756 19.5003 55.5476 18.5643C56.2196 17.6283 56.5556 16.2843 56.5556 14.5323C56.5556 12.7803 56.2196 11.4363 55.5476 10.5003C54.8756 9.56432 54.0236 8.92832 52.9916 8.59232C51.9596 8.23232 50.8796 8.05232 49.7516 8.05232ZM66.5285 4.56032C66.5285 3.60032 66.8645 2.82032 67.5365 2.22032C68.2325 1.62032 69.0605 1.32032 70.0205 1.32032C71.0045 1.32032 71.8325 1.62032 72.5045 2.22032C73.2005 2.82032 73.5485 3.60032 73.5485 4.56032C73.5485 5.52032 73.2005 6.30032 72.5045 6.90032C71.8325 7.47632 71.0045 7.76432 70.0205 7.76432C69.0605 7.76432 68.2325 7.47632 67.5365 6.90032C66.8645 6.30032 66.5285 5.52032 66.5285 4.56032ZM67.0325 10.5723H73.0085V27.1323H67.0325V10.5723ZM86.0855 27.4923C83.0135 27.4923 80.6015 26.7243 78.8495 25.1883C77.0975 23.6283 76.2215 21.5163 76.2215 18.8523C76.2215 16.1403 77.0735 14.0283 78.7775 12.5163C80.4815 10.9803 82.8455 10.2123 85.8695 10.2123C88.8695 10.2123 91.1615 10.9323 92.7455 12.3723C94.3535 13.8123 95.1575 15.8763 95.1575 18.5643C95.1575 18.8523 95.1455 19.1403 95.1215 19.4283C95.1215 19.6923 95.1095 19.9323 95.0855 20.1483H82.5575C82.8935 22.1883 83.9975 23.2083 85.8695 23.2083C87.6935 23.2083 88.9655 22.5723 89.6855 21.3003L95.3015 22.4163C93.5255 25.8003 90.4535 27.4923 86.0855 27.4923ZM85.7255 14.1723C84.0215 14.1723 82.9895 15.0963 82.6295 16.9443H88.4975C88.4495 16.0803 88.1735 15.4083 87.6695 14.9283C87.1655 14.4243 86.5175 14.1723 85.7255 14.1723ZM130.676 20.1123C130.676 22.6323 129.764 24.4323 127.94 25.5123C126.14 26.5923 123.668 27.1323 120.524 27.1323H109.76V1.93232H119.876C121.652 1.93232 123.248 2.17232 124.664 2.65232C126.08 3.13232 127.196 3.85232 128.012 4.81232C128.828 5.77232 129.236 6.96032 129.236 8.37632C129.236 9.57632 128.912 10.6323 128.264 11.5443C127.64 12.4323 126.776 13.1403 125.672 13.6683C127.088 14.1963 128.276 14.9883 129.236 16.0443C130.196 17.1003 130.676 18.4563 130.676 20.1123ZM119.012 7.26032H116.744V11.9043H119.012C119.972 11.9043 120.704 11.6883 121.208 11.2563C121.712 10.8243 121.964 10.2363 121.964 9.49232C121.964 8.00432 120.98 7.26032 119.012 7.26032ZM116.744 21.8043H119.66C120.692 21.8043 121.568 21.6363 122.288 21.3003C123.032 20.9403 123.404 20.1963 123.404 19.0683C123.404 18.1083 123.032 17.4603 122.288 17.1243C121.568 16.7883 120.692 16.6203 119.66 16.6203H116.744V21.8043ZM143.179 27.4923C140.107 27.4923 137.695 26.7243 135.943 25.1883C134.191 23.6283 133.315 21.5163 133.315 18.8523C133.315 16.1403 134.167 14.0283 135.871 12.5163C137.575 10.9803 139.939 10.2123 142.963 10.2123C145.963 10.2123 148.255 10.9323 149.839 12.3723C151.447 13.8123 152.251 15.8763 152.251 18.5643C152.251 18.8523 152.239 19.1403 152.215 19.4283C152.215 19.6923 152.203 19.9323 152.179 20.1483H139.651C139.987 22.1883 141.091 23.2083 142.963 23.2083C144.787 23.2083 146.059 22.5723 146.779 21.3003L152.395 22.4163C150.619 25.8003 147.547 27.4923 143.179 27.4923ZM142.819 14.1723C141.115 14.1723 140.083 15.0963 139.723 16.9443H145.591C145.543 16.0803 145.267 15.4083 144.763 14.9283C144.259 14.4243 143.611 14.1723 142.819 14.1723ZM156.385 20.8323C157.873 21.9843 159.085 22.7163 160.021 23.0283C160.981 23.3403 161.689 23.4963 162.145 23.4963C162.601 23.4963 162.937 23.4003 163.153 23.2083C163.369 22.9923 163.477 22.7283 163.477 22.4163C163.477 22.1283 163.381 21.8883 163.189 21.6963C163.021 21.4803 162.685 21.2643 162.181 21.0483C161.701 20.8323 160.981 20.5683 160.021 20.2563C159.229 19.9923 158.473 19.6683 157.753 19.2843C157.033 18.8763 156.445 18.3363 155.989 17.6643C155.557 16.9683 155.341 16.0803 155.341 15.0003C155.341 13.4643 155.929 12.2883 157.105 11.4723C158.305 10.6323 159.865 10.2123 161.785 10.2123C163.249 10.2123 164.581 10.4283 165.781 10.8603C166.981 11.2923 168.133 11.8203 169.237 12.4443L167.401 16.5843C166.657 15.9123 165.805 15.3723 164.845 14.9643C163.885 14.5323 163.045 14.3163 162.325 14.3163C161.869 14.3163 161.533 14.4003 161.317 14.5683C161.125 14.7363 161.029 14.9403 161.029 15.1803C161.029 15.6843 161.353 16.0563 162.001 16.2963C162.649 16.5123 163.633 16.8723 164.953 17.3763C165.769 17.6883 166.537 18.0363 167.257 18.4203C167.977 18.8043 168.553 19.3203 168.985 19.9683C169.441 20.5923 169.669 21.4203 169.669 22.4523C169.669 24.3243 169.105 25.7043 167.977 26.5923C166.873 27.4803 165.301 27.9243 163.261 27.9243C161.413 27.9243 159.757 27.6603 158.293 27.1323C156.829 26.6043 155.437 25.9203 154.117 25.0803L156.385 20.8323ZM170.629 10.5723H173.617V4.81232H179.557V10.5723H182.545V15.6123H179.557V27.1323H173.617V15.6123H170.629V10.5723ZM193.699 27.4923C190.627 27.4923 188.215 26.7243 186.463 25.1883C184.711 23.6283 183.835 21.5163 183.835 18.8523C183.835 16.1403 184.687 14.0283 186.391 12.5163C188.095 10.9803 190.459 10.2123 193.483 10.2123C196.483 10.2123 198.775 10.9323 200.359 12.3723C201.967 13.8123 202.771 15.8763 202.771 18.5643C202.771 18.8523 202.759 19.1403 202.735 19.4283C202.735 19.6923 202.723 19.9323 202.699 20.1483H190.171C190.507 22.1883 191.611 23.2083 193.483 23.2083C195.307 23.2083 196.579 22.5723 197.299 21.3003L202.915 22.4163C201.139 25.8003 198.067 27.4923 193.699 27.4923ZM193.339 14.1723C191.635 14.1723 190.603 15.0963 190.243 16.9443H196.111C196.063 16.0803 195.787 15.4083 195.283 14.9283C194.779 14.4243 194.131 14.1723 193.339 14.1723ZM234.221 27.1323L232.097 23.0643H224.681L222.593 27.1323H214.673L228.389 0.240323L242.141 27.1323H234.221ZM228.389 12.2643L225.905 17.9163H230.873L228.389 12.2643ZM254.807 16.9443C254.543 16.6563 254.243 16.4283 253.907 16.2603C253.571 16.0683 253.175 15.9723 252.719 15.9723C251.999 15.9723 251.375 16.2723 250.847 16.8723C250.343 17.4483 250.091 18.3363 250.091 19.5363V27.1323H244.007V10.5723H250.091V12.6963C250.619 11.9043 251.267 11.2803 252.035 10.8243C252.803 10.3683 253.607 10.1403 254.447 10.1403C255.047 10.1403 255.623 10.2843 256.175 10.5723C256.727 10.8603 257.135 11.1963 257.399 11.5803L254.807 16.9443ZM257.746 10.5723H260.734V4.81232H266.674V10.5723H269.662V15.6123H266.674V27.1323H260.734V15.6123H257.746V10.5723ZM273.868 23.1723L280.096 24.3603L275.38 33.3603L270.7 32.4963L273.868 23.1723ZM0.81075 105.932H18.2708V111.584H7.50675V115.292H17.5508V120.764H7.50675V125.48H18.2708V131.132H0.81075V105.932ZM23.4238 124.832C24.9118 125.984 26.1238 126.716 27.0598 127.028C28.0198 127.34 28.7278 127.496 29.1838 127.496C29.6398 127.496 29.9758 127.4 30.1918 127.208C30.4078 126.992 30.5158 126.728 30.5158 126.416C30.5158 126.128 30.4198 125.888 30.2278 125.696C30.0598 125.48 29.7238 125.264 29.2198 125.048C28.7398 124.832 28.0198 124.568 27.0598 124.256C26.2678 123.992 25.5118 123.668 24.7918 123.284C24.0718 122.876 23.4838 122.336 23.0278 121.664C22.5958 120.968 22.3798 120.08 22.3798 119C22.3798 117.464 22.9678 116.288 24.1438 115.472C25.3438 114.632 26.9038 114.212 28.8238 114.212C30.2878 114.212 31.6198 114.428 32.8198 114.86C34.0198 115.292 35.1718 115.82 36.2758 116.444L34.4398 120.584C33.6958 119.912 32.8438 119.372 31.8838 118.964C30.9238 118.532 30.0838 118.316 29.3638 118.316C28.9078 118.316 28.5718 118.4 28.3558 118.568C28.1638 118.736 28.0678 118.94 28.0678 119.18C28.0678 119.684 28.3918 120.056 29.0398 120.296C29.6878 120.512 30.6718 120.872 31.9918 121.376C32.8078 121.688 33.5758 122.036 34.2958 122.42C35.0158 122.804 35.5918 123.32 36.0238 123.968C36.4798 124.592 36.7078 125.42 36.7078 126.452C36.7078 128.324 36.1438 129.704 35.0158 130.592C33.9118 131.48 32.3398 131.924 30.2998 131.924C28.4518 131.924 26.7958 131.66 25.3318 131.132C23.8678 130.604 22.4758 129.92 21.1558 129.08L23.4238 124.832ZM40.4043 124.832C41.8923 125.984 43.1043 126.716 44.0403 127.028C45.0003 127.34 45.7083 127.496 46.1643 127.496C46.6203 127.496 46.9563 127.4 47.1723 127.208C47.3883 126.992 47.4963 126.728 47.4963 126.416C47.4963 126.128 47.4003 125.888 47.2083 125.696C47.0403 125.48 46.7043 125.264 46.2003 125.048C45.7203 124.832 45.0003 124.568 44.0403 124.256C43.2483 123.992 42.4923 123.668 41.7723 123.284C41.0523 122.876 40.4643 122.336 40.0083 121.664C39.5763 120.968 39.3603 120.08 39.3603 119C39.3603 117.464 39.9483 116.288 41.1243 115.472C42.3243 114.632 43.8843 114.212 45.8043 114.212C47.2683 114.212 48.6003 114.428 49.8003 114.86C51.0003 115.292 52.1523 115.82 53.2563 116.444L51.4203 120.584C50.6763 119.912 49.8243 119.372 48.8643 118.964C47.9043 118.532 47.0643 118.316 46.3443 118.316C45.8883 118.316 45.5523 118.4 45.3363 118.568C45.1443 118.736 45.0483 118.94 45.0483 119.18C45.0483 119.684 45.3723 120.056 46.0203 120.296C46.6683 120.512 47.6523 120.872 48.9723 121.376C49.7883 121.688 50.5563 122.036 51.2763 122.42C51.9963 122.804 52.5723 123.32 53.0043 123.968C53.4603 124.592 53.6883 125.42 53.6883 126.452C53.6883 128.324 53.1243 129.704 51.9963 130.592C50.8923 131.48 49.3203 131.924 47.2803 131.924C45.4323 131.924 43.7763 131.66 42.3123 131.132C40.8483 130.604 39.4563 129.92 38.1363 129.08L40.4043 124.832ZM65.4488 131.492C62.3768 131.492 59.9648 130.724 58.2128 129.188C56.4608 127.628 55.5848 125.516 55.5848 122.852C55.5848 120.14 56.4368 118.028 58.1408 116.516C59.8448 114.98 62.2088 114.212 65.2328 114.212C68.2328 114.212 70.5248 114.932 72.1088 116.372C73.7168 117.812 74.5208 119.876 74.5208 122.564C74.5208 122.852 74.5088 123.14 74.4848 123.428C74.4848 123.692 74.4728 123.932 74.4488 124.148H61.9208C62.2568 126.188 63.3608 127.208 65.2328 127.208C67.0568 127.208 68.3288 126.572 69.0488 125.3L74.6648 126.416C72.8888 129.8 69.8168 131.492 65.4488 131.492ZM65.0888 118.172C63.3848 118.172 62.3528 119.096 61.9928 120.944H67.8608C67.8128 120.08 67.5368 119.408 67.0328 118.928C66.5288 118.424 65.8808 118.172 65.0888 118.172ZM88.4823 121.052C88.4823 120.188 88.3383 119.528 88.0503 119.072C87.7623 118.592 87.2103 118.352 86.3943 118.352C85.6503 118.352 85.0503 118.58 84.5943 119.036C84.1623 119.468 83.9463 120.14 83.9463 121.052V131.132H77.7183V114.572H83.9463V117.02C84.4023 116.132 85.0383 115.436 85.8543 114.932C86.6943 114.428 87.7503 114.176 89.0223 114.176C91.1583 114.176 92.6823 114.728 93.5943 115.832C94.5303 116.912 94.9983 118.436 94.9983 120.404V131.132H88.4823V121.052ZM110.034 112.16V105.932H130.446L118.926 125.192H129.006V131.132H108.018L119.322 112.16H110.034ZM138.269 124.652C138.269 125.492 138.413 126.152 138.701 126.632C138.989 127.112 139.529 127.352 140.321 127.352C141.089 127.352 141.689 127.136 142.121 126.704C142.577 126.248 142.805 125.564 142.805 124.652V114.572H149.033V131.132H142.805V128.684C142.325 129.548 141.665 130.244 140.825 130.772C140.009 131.276 138.977 131.528 137.729 131.528C135.569 131.528 134.033 130.988 133.121 129.908C132.209 128.804 131.753 127.268 131.753 125.3V114.572H138.269V124.652ZM185.309 124.112C185.309 126.632 184.397 128.432 182.573 129.512C180.773 130.592 178.301 131.132 175.157 131.132H164.393V105.932H174.509C176.285 105.932 177.881 106.172 179.297 106.652C180.713 107.132 181.829 107.852 182.645 108.812C183.461 109.772 183.869 110.96 183.869 112.376C183.869 113.576 183.545 114.632 182.897 115.544C182.273 116.432 181.409 117.14 180.305 117.668C181.721 118.196 182.909 118.988 183.869 120.044C184.829 121.1 185.309 122.456 185.309 124.112ZM173.645 111.26H171.377V115.904H173.645C174.605 115.904 175.337 115.688 175.841 115.256C176.345 114.824 176.597 114.236 176.597 113.492C176.597 112.004 175.613 111.26 173.645 111.26ZM171.377 125.804H174.293C175.325 125.804 176.201 125.636 176.921 125.3C177.665 124.94 178.037 124.196 178.037 123.068C178.037 122.108 177.665 121.46 176.921 121.124C176.201 120.788 175.325 120.62 174.293 120.62H171.377V125.804ZM197.812 131.492C194.74 131.492 192.328 130.724 190.576 129.188C188.824 127.628 187.948 125.516 187.948 122.852C187.948 120.14 188.8 118.028 190.504 116.516C192.208 114.98 194.572 114.212 197.596 114.212C200.596 114.212 202.888 114.932 204.472 116.372C206.08 117.812 206.884 119.876 206.884 122.564C206.884 122.852 206.872 123.14 206.848 123.428C206.848 123.692 206.836 123.932 206.812 124.148H194.284C194.62 126.188 195.724 127.208 197.596 127.208C199.42 127.208 200.692 126.572 201.412 125.3L207.028 126.416C205.252 129.8 202.18 131.492 197.812 131.492ZM197.452 118.172C195.748 118.172 194.716 119.096 194.356 120.944H200.224C200.176 120.08 199.9 119.408 199.396 118.928C198.892 118.424 198.244 118.172 197.452 118.172ZM211.018 124.832C212.506 125.984 213.718 126.716 214.654 127.028C215.614 127.34 216.322 127.496 216.778 127.496C217.234 127.496 217.57 127.4 217.786 127.208C218.002 126.992 218.11 126.728 218.11 126.416C218.11 126.128 218.014 125.888 217.822 125.696C217.654 125.48 217.318 125.264 216.814 125.048C216.334 124.832 215.614 124.568 214.654 124.256C213.862 123.992 213.106 123.668 212.386 123.284C211.666 122.876 211.078 122.336 210.622 121.664C210.19 120.968 209.974 120.08 209.974 119C209.974 117.464 210.562 116.288 211.738 115.472C212.938 114.632 214.498 114.212 216.418 114.212C217.882 114.212 219.214 114.428 220.414 114.86C221.614 115.292 222.766 115.82 223.87 116.444L222.034 120.584C221.29 119.912 220.438 119.372 219.478 118.964C218.518 118.532 217.678 118.316 216.958 118.316C216.502 118.316 216.166 118.4 215.95 118.568C215.758 118.736 215.662 118.94 215.662 119.18C215.662 119.684 215.986 120.056 216.634 120.296C217.282 120.512 218.266 120.872 219.586 121.376C220.402 121.688 221.17 122.036 221.89 122.42C222.61 122.804 223.186 123.32 223.618 123.968C224.074 124.592 224.302 125.42 224.302 126.452C224.302 128.324 223.738 129.704 222.61 130.592C221.506 131.48 219.934 131.924 217.894 131.924C216.046 131.924 214.39 131.66 212.926 131.132C211.462 130.604 210.07 129.92 208.75 129.08L211.018 124.832ZM225.262 114.572H228.25V108.812H234.19V114.572H237.178V119.612H234.19V131.132H228.25V119.612H225.262V114.572ZM248.332 131.492C245.26 131.492 242.848 130.724 241.096 129.188C239.344 127.628 238.468 125.516 238.468 122.852C238.468 120.14 239.32 118.028 241.024 116.516C242.728 114.98 245.092 114.212 248.116 114.212C251.116 114.212 253.408 114.932 254.992 116.372C256.6 117.812 257.404 119.876 257.404 122.564C257.404 122.852 257.392 123.14 257.368 123.428C257.368 123.692 257.356 123.932 257.332 124.148H244.804C245.14 126.188 246.244 127.208 248.116 127.208C249.94 127.208 251.212 126.572 251.932 125.3L257.548 126.416C255.772 129.8 252.7 131.492 248.332 131.492ZM247.972 118.172C246.268 118.172 245.236 119.096 244.876 120.944H250.744C250.696 120.08 250.42 119.408 249.916 118.928C249.412 118.424 248.764 118.172 247.972 118.172ZM260.601 103.052H266.829V131.132H260.601V103.052ZM270.761 103.052H276.989V131.132H270.761V103.052ZM289.921 131.492C286.849 131.492 284.437 130.724 282.685 129.188C280.933 127.628 280.057 125.516 280.057 122.852C280.057 120.14 280.909 118.028 282.613 116.516C284.317 114.98 286.681 114.212 289.705 114.212C292.705 114.212 294.997 114.932 296.581 116.372C298.189 117.812 298.993 119.876 298.993 122.564C298.993 122.852 298.981 123.14 298.957 123.428C298.957 123.692 298.945 123.932 298.921 124.148H286.393C286.729 126.188 287.833 127.208 289.705 127.208C291.529 127.208 292.801 126.572 293.521 125.3L299.137 126.416C297.361 129.8 294.289 131.492 289.921 131.492ZM289.561 118.172C287.857 118.172 286.825 119.096 286.465 120.944H292.333C292.285 120.08 292.009 119.408 291.505 118.928C291.001 118.424 290.353 118.172 289.561 118.172ZM312.955 121.052C312.955 120.188 312.811 119.528 312.523 119.072C312.235 118.592 311.683 118.352 310.867 118.352C310.123 118.352 309.523 118.58 309.067 119.036C308.635 119.468 308.419 120.14 308.419 121.052V131.132H302.191V114.572H308.419V117.02C308.875 116.132 309.511 115.436 310.327 114.932C311.167 114.428 312.223 114.176 313.495 114.176C315.631 114.176 317.155 114.728 318.067 115.832C319.003 116.912 319.471 118.436 319.471 120.404V131.132H312.955V121.052Z" fill="black"/>
<path d="M39.8951 79.1323L37.7711 75.0643H30.3551L28.2671 79.1323H20.3471L34.0631 52.2403L47.8151 79.1323H39.8951ZM34.0631 64.2643L31.5791 69.9163H36.5471L34.0631 64.2643ZM75.7092 68.4043V79.1323H69.4812V69.0523C69.4812 68.1883 69.3372 67.5283 69.0492 67.0723C68.7852 66.5923 68.3292 66.3523 67.6812 66.3523C67.0812 66.3523 66.5892 66.5803 66.2052 67.0363C65.8452 67.4683 65.6652 68.1403 65.6652 69.0523V79.1323H59.4372V69.0523C59.4372 68.1883 59.2932 67.5283 59.0052 67.0723C58.7412 66.5923 58.2852 66.3523 57.6372 66.3523C57.0372 66.3523 56.5452 66.5803 56.1612 67.0363C55.8012 67.4683 55.6212 68.1403 55.6212 69.0523V79.1323H49.6812V62.5723H55.6212V65.0563C56.0772 64.1683 56.7012 63.4723 57.4932 62.9683C58.3092 62.4403 59.3052 62.1763 60.4812 62.1763C61.8012 62.1763 62.8332 62.4043 63.5772 62.8603C64.3452 63.2923 64.8852 63.9403 65.1972 64.8043C65.7972 63.9883 66.5532 63.3523 67.4652 62.8963C68.3772 62.4163 69.3972 62.1763 70.5252 62.1763C72.5172 62.1763 73.8732 62.7163 74.5932 63.7963C75.3372 64.8763 75.7092 66.4123 75.7092 68.4043ZM107.887 79.1323L105.763 75.0643H98.3473L96.2593 79.1323H88.3393L102.055 52.2403L115.807 79.1323H107.887ZM102.055 64.2643L99.5713 69.9163H104.539L102.055 64.2643ZM128.473 68.9443C128.209 68.6563 127.909 68.4283 127.573 68.2603C127.237 68.0683 126.841 67.9723 126.385 67.9723C125.665 67.9723 125.041 68.2723 124.513 68.8723C124.009 69.4483 123.757 70.3363 123.757 71.5363V79.1323H117.673V62.5723H123.757V64.6963C124.285 63.9043 124.933 63.2803 125.701 62.8243C126.469 62.3683 127.273 62.1403 128.113 62.1403C128.713 62.1403 129.289 62.2843 129.841 62.5723C130.393 62.8603 130.801 63.1963 131.065 63.5803L128.473 68.9443ZM152.832 70.8523C152.832 72.7483 152.448 74.3323 151.68 75.6043C150.936 76.8763 149.964 77.8483 148.764 78.5203C147.588 79.1683 146.352 79.4923 145.056 79.4923C142.632 79.4923 140.748 78.5203 139.404 76.5763V79.1323H133.176V51.0523H139.404V65.1283C140.748 63.1843 142.632 62.2123 145.056 62.2123C146.352 62.2123 147.588 62.5483 148.764 63.2203C149.964 63.8683 150.936 64.8283 151.68 66.1003C152.448 67.3723 152.832 68.9563 152.832 70.8523ZM146.28 70.8523C146.28 69.7483 145.932 68.8483 145.236 68.1523C144.564 67.4563 143.748 67.1083 142.788 67.1083C141.972 67.1083 141.204 67.4443 140.484 68.1163C139.764 68.7643 139.404 69.6763 139.404 70.8523C139.404 72.0283 139.764 72.9523 140.484 73.6243C141.204 74.2723 141.972 74.5963 142.788 74.5963C143.748 74.5963 144.564 74.2483 145.236 73.5523C145.932 72.8563 146.28 71.9563 146.28 70.8523ZM164.923 79.4923C161.851 79.4923 159.439 78.7243 157.687 77.1883C155.935 75.6283 155.059 73.5163 155.059 70.8523C155.059 68.1403 155.911 66.0283 157.615 64.5163C159.319 62.9803 161.683 62.2123 164.707 62.2123C167.707 62.2123 169.999 62.9323 171.583 64.3723C173.191 65.8123 173.995 67.8763 173.995 70.5643C173.995 70.8523 173.983 71.1403 173.959 71.4283C173.959 71.6923 173.947 71.9323 173.923 72.1483H161.395C161.731 74.1883 162.835 75.2083 164.707 75.2083C166.531 75.2083 167.803 74.5723 168.523 73.3003L174.139 74.4163C172.363 77.8003 169.291 79.4923 164.923 79.4923ZM164.563 66.1723C162.859 66.1723 161.827 67.0963 161.467 68.9443H167.335C167.287 68.0803 167.011 67.4083 166.507 66.9283C166.003 66.4243 165.355 66.1723 164.563 66.1723ZM176.761 56.5603C176.761 55.6003 177.097 54.8203 177.769 54.2203C178.465 53.6203 179.293 53.3203 180.253 53.3203C181.237 53.3203 182.065 53.6203 182.737 54.2203C183.433 54.8203 183.781 55.6003 183.781 56.5603C183.781 57.5203 183.433 58.3003 182.737 58.9003C182.065 59.4763 181.237 59.7643 180.253 59.7643C179.293 59.7643 178.465 59.4763 177.769 58.9003C177.097 58.3003 176.761 57.5203 176.761 56.5603ZM177.265 62.5723H183.241V79.1323H177.265V62.5723ZM185.518 62.5723H188.506V56.8123H194.446V62.5723H197.434V67.6123H194.446V79.1323H188.506V67.6123H185.518V62.5723ZM200.523 72.8323C202.011 73.9843 203.223 74.7163 204.159 75.0283C205.119 75.3403 205.827 75.4963 206.283 75.4963C206.739 75.4963 207.075 75.4003 207.291 75.2083C207.507 74.9923 207.615 74.7283 207.615 74.4163C207.615 74.1283 207.519 73.8883 207.327 73.6963C207.159 73.4803 206.823 73.2643 206.319 73.0483C205.839 72.8323 205.119 72.5683 204.159 72.2563C203.367 71.9923 202.611 71.6683 201.891 71.2843C201.171 70.8763 200.583 70.3363 200.127 69.6643C199.695 68.9683 199.479 68.0803 199.479 67.0003C199.479 65.4643 200.067 64.2883 201.243 63.4723C202.443 62.6323 204.003 62.2123 205.923 62.2123C207.387 62.2123 208.719 62.4283 209.919 62.8603C211.119 63.2923 212.271 63.8203 213.375 64.4443L211.539 68.5843C210.795 67.9123 209.943 67.3723 208.983 66.9643C208.023 66.5323 207.183 66.3163 206.463 66.3163C206.007 66.3163 205.671 66.4003 205.455 66.5683C205.263 66.7363 205.167 66.9403 205.167 67.1803C205.167 67.6843 205.491 68.0563 206.139 68.2963C206.787 68.5123 207.771 68.8723 209.091 69.3763C209.907 69.6883 210.675 70.0363 211.395 70.4203C212.115 70.8043 212.691 71.3203 213.123 71.9683C213.579 72.5923 213.807 73.4203 213.807 74.4523C213.807 76.3243 213.243 77.7043 212.115 78.5923C211.011 79.4803 209.439 79.9243 207.399 79.9243C205.551 79.9243 203.895 79.6603 202.431 79.1323C200.967 78.6043 199.575 77.9203 198.255 77.0803L200.523 72.8323ZM222.76 87.0523H216.532V62.5723H222.76V65.1643C223.336 64.1323 224.092 63.3403 225.028 62.7883C225.988 62.2123 227.116 61.9243 228.412 61.9243C229.708 61.9243 230.944 62.2603 232.12 62.9323C233.32 63.5803 234.292 64.5643 235.036 65.8843C235.804 67.2043 236.188 68.8603 236.188 70.8523C236.188 72.8443 235.804 74.5003 235.036 75.8203C234.292 77.1403 233.32 78.1363 232.12 78.8083C230.944 79.4563 229.708 79.7803 228.412 79.7803C227.116 79.7803 225.988 79.5043 225.028 78.9523C224.092 78.3763 223.336 77.5723 222.76 76.5403V87.0523ZM229.636 70.8523C229.636 69.7483 229.288 68.8963 228.592 68.2963C227.92 67.6963 227.104 67.3963 226.144 67.3963C225.328 67.3963 224.56 67.6843 223.84 68.2603C223.12 68.8123 222.76 69.6763 222.76 70.8523C222.76 72.0283 223.12 72.9043 223.84 73.4803C224.56 74.0323 225.328 74.3083 226.144 74.3083C227.104 74.3083 227.92 74.0083 228.592 73.4083C229.288 72.8083 229.636 71.9563 229.636 70.8523ZM239.279 51.0523H245.507V79.1323H239.279V51.0523ZM251.491 68.0083L249.511 63.9403C250.567 63.4843 251.779 63.0643 253.147 62.6803C254.539 62.2723 256.015 62.0683 257.575 62.0683C259.087 62.0683 260.443 62.2843 261.643 62.7163C262.867 63.1483 263.827 63.7723 264.523 64.5883C265.243 65.4043 265.603 66.3883 265.603 67.5403V79.1323H259.663V76.8283C259.183 77.6923 258.451 78.3523 257.467 78.8083C256.483 79.2643 255.391 79.4923 254.191 79.4923C253.111 79.4923 252.115 79.3003 251.203 78.9163C250.315 78.5083 249.595 77.9203 249.043 77.1523C248.515 76.3843 248.251 75.4243 248.251 74.2723C248.251 72.6883 248.815 71.4403 249.943 70.5283C251.071 69.6163 252.679 69.1603 254.767 69.1603C255.727 69.1603 256.627 69.2563 257.467 69.4483C258.331 69.6403 259.063 69.8803 259.663 70.1683V69.0163C259.663 68.2963 259.423 67.7323 258.943 67.3243C258.487 66.8923 257.743 66.6763 256.711 66.6763C256.015 66.6763 255.307 66.7603 254.587 66.9283C253.867 67.0963 253.219 67.2883 252.643 67.5043C252.091 67.7203 251.707 67.8883 251.491 68.0083ZM254.515 73.9483C254.515 74.5003 254.707 74.9203 255.091 75.2083C255.499 75.4963 255.979 75.6403 256.531 75.6403C257.275 75.6403 257.947 75.4243 258.547 74.9923C259.171 74.5363 259.531 73.8403 259.627 72.9043C258.763 72.5443 257.815 72.3643 256.783 72.3643C255.967 72.3643 255.379 72.4963 255.019 72.7603C254.683 73.0243 254.515 73.4203 254.515 73.9483ZM267.643 62.5723H270.631V56.8123H276.571V62.5723H279.559V67.6123H276.571V79.1323H270.631V67.6123H267.643V62.5723ZM288.516 68.1883H281.928V62.5723H298.668L291 73.5163H297.372V79.1323H280.272L288.516 68.1883Z" fill="#FFBB00"/>
</svg>
