<svg width="91" height="99" viewBox="0 0 91 99" fill="none" xmlns="http://www.w3.org/2000/svg">
<path fill-rule="evenodd" clip-rule="evenodd" d="M22.7472 38.2415C23.3138 38.2415 23.8149 38.6091 23.985 39.1496L24.8777 41.9869H64.3272C65.5685 41.9869 66.4926 43.1332 66.2293 44.3462L62.072 63.498C61.8777 64.393 61.0857 65.0315 60.1699 65.0315H33.7778L34.1271 65.8067C34.1271 65.8067 35.8968 69.9337 38.0983 69.8372L38.1552 71.1335C35.7154 71.2637 34.1569 68.6756 33.0001 66.5236C32.6393 65.8525 32.3547 65.3128 32.2807 65.1927C32.1795 65.0286 32.1078 64.8883 32.06 64.7849C32.0361 64.7332 32.018 64.6907 32.0052 64.6588C31.9988 64.6429 31.9937 64.6296 31.9898 64.6192L31.9869 64.6111L31.9849 64.6058L23.8032 42.855L22.2515 38.2415H22.7472ZM33.0432 63.7339H60.1699C60.4752 63.7339 60.7392 63.5211 60.8039 63.2227L64.9613 44.0709C65.049 43.6666 64.741 43.2845 64.3272 43.2845H25.3511L33.0432 63.7339Z" fill="#E0A500"/>
<path d="M22.7883 38.2425C22.7689 38.2418 22.7494 38.2415 22.7298 38.2415H17.67C16.7871 38.2415 16.0713 38.9572 16.0713 39.8402C16.0713 40.7231 16.7871 41.4389 17.67 41.4389C19.399 41.478 19.354 41.479 21.0355 41.479V40.6055C19.2164 40.6055 17.67 40.6007 17.67 40.6007C17.1454 40.6007 16.7201 40.5058 16.7201 39.8402C16.7201 39.3155 17.1454 39.1833 17.67 39.1833C19.3703 39.1833 21.0873 39.1851 22.7883 39.1851V38.2425Z" fill="#E0A500"/>
<path fill-rule="evenodd" clip-rule="evenodd" d="M29.0387 64.875L19.7095 40.6085L21.0355 40.6055L30.2583 64.4313L30.2627 64.444C30.8131 66.0619 33.9942 73.2178 36.5609 73.201L36.6366 74.4964C33.0432 74.9032 29.6843 66.7566 29.0387 64.875Z" fill="#E0A500"/>
<path d="M36.421 74.5107L59.7096 74.5154C60.5616 74.2428 61.5435 73.3674 61.5435 72.066C61.5435 70.9894 60.7035 70.1613 59.7096 69.8393H35.9434L38.1552 71.1335L59.5604 71.154C59.8662 71.154 60.2658 71.7639 60.2658 72.066C60.2658 72.3682 60.0155 73.2178 59.7096 73.2178H35.9434L36.421 74.5107Z" fill="#E0A500"/>
<path fill-rule="evenodd" clip-rule="evenodd" d="M57.1373 74.5996C55.637 74.5996 54.4207 75.8159 54.4207 77.3163C54.4207 78.8167 55.637 80.033 57.1373 80.033C58.6377 80.033 59.854 78.8167 59.854 77.3163C59.854 75.8159 58.6377 74.5996 57.1373 74.5996ZM53.1231 77.3163C53.1231 75.0993 54.9203 73.302 57.1373 73.302C59.3544 73.302 61.1516 75.0993 61.1516 77.3163C61.1516 79.5333 59.3544 81.3306 57.1373 81.3306C54.9203 81.3306 53.1231 79.5333 53.1231 77.3163Z" fill="#E0A500"/>
<path fill-rule="evenodd" clip-rule="evenodd" d="M39.4334 74.5996C37.9331 74.5996 36.7168 75.8159 36.7168 77.3163C36.7168 78.8167 37.9331 80.033 39.4334 80.033C40.9338 80.033 42.1501 78.8167 42.1501 77.3163C42.1501 75.8159 40.9338 74.5996 39.4334 74.5996ZM35.4192 77.3163C35.4192 75.0993 37.2164 73.302 39.4334 73.302C41.6505 73.302 43.4477 75.0993 43.4477 77.3163C43.4477 79.5333 41.6505 81.3306 39.4334 81.3306C37.2164 81.3306 35.4192 79.5333 35.4192 77.3163Z" fill="#E0A500"/>
<path fill-rule="evenodd" clip-rule="evenodd" d="M64.7352 49.0384H26.6555V47.7409H64.7352V49.0384Z" fill="#E0A500"/>
<path fill-rule="evenodd" clip-rule="evenodd" d="M62.9968 57.1585H29.639V55.8609H62.9968V57.1585Z" fill="#E0A500"/>
<path fill-rule="evenodd" clip-rule="evenodd" d="M38.5585 64.6303L31.4401 42.7575L32.674 42.356L39.7924 64.2287L38.5585 64.6303Z" fill="#E0A500"/>
<path fill-rule="evenodd" clip-rule="evenodd" d="M53.4576 64.6303L60.576 42.7575L59.3421 42.356L52.2237 64.2287L53.4576 64.6303Z" fill="#E0A500"/>
<path fill-rule="evenodd" clip-rule="evenodd" d="M42.9115 64.4932L40.8926 42.7538L42.1846 42.6338L44.2036 64.3732L42.9115 64.4932Z" fill="#E0A500"/>
<path fill-rule="evenodd" clip-rule="evenodd" d="M49.4622 64.1178L51.4811 42.3784L50.1891 42.2584L48.1702 63.9978L49.4622 64.1178Z" fill="#E0A500"/>
<circle cx="45.1288" cy="53.5383" r="45" fill="#FFBB00" fill-opacity="0.14"/>
<circle cx="72.7201" cy="15.6509" r="15" fill="#FFBB00"/>
<path d="M75.8405 12.5369C75.8405 12.9119 75.7806 13.2764 75.6608 13.6306C75.541 13.9848 75.3665 14.3468 75.1373 14.7166C74.9082 15.0916 74.6269 15.4796 74.2936 15.8806C73.9655 16.2817 73.5905 16.7139 73.1686 17.1775L70.4655 20.1697H74.1608C74.6087 20.1697 74.9238 20.0577 75.1061 19.8337C75.2884 19.6098 75.4212 19.3233 75.5045 18.9744L75.567 18.6853H76.2389L76.1608 21.4509H69.278V20.2791L71.9498 17.1931C72.3769 16.6983 72.7337 16.2556 73.0201 15.865C73.3118 15.4744 73.5462 15.1046 73.7233 14.7556C73.9003 14.4119 74.028 14.0759 74.1061 13.7478C74.1842 13.4145 74.2233 13.0655 74.2233 12.7009C74.2233 12.0916 74.0905 11.602 73.8248 11.2322C73.5644 10.8572 73.153 10.6697 72.5905 10.6697C72.1217 10.6697 71.7597 10.7764 71.5045 10.99C71.2493 11.1983 71.0722 11.4822 70.9733 11.8416C70.8795 12.2009 70.8326 12.6046 70.8326 13.0525C70.4368 13.0525 70.1087 12.9796 69.8483 12.8337C69.5878 12.6827 69.4576 12.4093 69.4576 12.0134C69.4576 11.3676 69.7233 10.8546 70.2545 10.4744C70.5149 10.2817 70.8405 10.1332 71.2311 10.0291C71.6217 9.91968 72.0748 9.86499 72.5905 9.86499C73.0957 9.86499 73.5488 9.93009 73.9498 10.0603C74.3509 10.1853 74.692 10.3624 74.9733 10.5916C75.5514 11.0707 75.8405 11.7192 75.8405 12.5369Z" fill="black"/>
</svg>
