<svg width="91" height="99" viewBox="0 0 91 99" fill="none" xmlns="http://www.w3.org/2000/svg">
<path fill-rule="evenodd" clip-rule="evenodd" d="M22.743 37.9915C23.3096 37.9915 23.8107 38.3591 23.9807 38.8996L24.8734 41.7369H64.323C65.5642 41.7369 66.4884 42.8832 66.225 44.0962L62.0677 63.248C61.8734 64.143 61.0815 64.7815 60.1656 64.7815H33.7736L34.1228 65.5567C34.1228 65.5567 35.8925 69.6837 38.094 69.5872L38.1509 70.8835C35.7111 71.0137 34.1526 68.4256 32.9958 66.2736C32.6351 65.6025 32.3504 65.0628 32.2764 64.9427C32.1753 64.7786 32.1036 64.6383 32.0557 64.5349C32.0318 64.4832 32.0138 64.4407 32.001 64.4088C31.9945 64.3929 31.9894 64.3796 31.9855 64.3692L31.9826 64.3611L31.9806 64.3558L23.7989 42.605L22.2472 37.9915H22.743ZM33.039 63.4839H60.1656C60.4709 63.4839 60.7349 63.2711 60.7996 62.9727L64.957 43.8209C65.0448 43.4166 64.7367 43.0345 64.323 43.0345H25.3468L33.039 63.4839Z" fill="#E0A500"/>
<path d="M22.784 37.9925C22.7646 37.9918 22.7451 37.9915 22.7256 37.9915H17.6657C16.7828 37.9915 16.067 38.7072 16.067 39.5902C16.067 40.4731 16.7828 41.1889 17.6657 41.1889C19.3947 41.228 19.3497 41.229 21.0312 41.229V40.3555C19.2121 40.3555 17.6657 40.3507 17.6657 40.3507C17.1411 40.3507 16.7158 40.2558 16.7158 39.5902C16.7158 39.0655 17.1411 38.9333 17.6657 38.9333C19.366 38.9333 21.083 38.9351 22.784 38.9351V37.9925Z" fill="#E0A500"/>
<path fill-rule="evenodd" clip-rule="evenodd" d="M29.0344 64.625L19.7052 40.3585L21.0312 40.3555L30.2541 64.1813L30.2584 64.194C30.8089 65.8119 33.9899 72.9678 36.5566 72.951L36.6323 74.2464C33.039 74.6532 29.68 66.5066 29.0344 64.625Z" fill="#E0A500"/>
<path d="M36.4167 74.2607L59.7054 74.2654C60.5573 73.9928 61.5392 73.1174 61.5392 71.816C61.5392 70.7394 60.6993 69.9113 59.7054 69.5893H35.9392L38.1509 70.8835L59.5561 70.904C59.8619 70.904 60.2615 71.5139 60.2615 71.816C60.2615 72.1182 60.0112 72.9678 59.7054 72.9678H35.9392L36.4167 74.2607Z" fill="#E0A500"/>
<path fill-rule="evenodd" clip-rule="evenodd" d="M57.1331 74.3496C55.6327 74.3496 54.4164 75.5659 54.4164 77.0663C54.4164 78.5667 55.6327 79.783 57.1331 79.783C58.6334 79.783 59.8497 78.5667 59.8497 77.0663C59.8497 75.5659 58.6334 74.3496 57.1331 74.3496ZM53.1188 77.0663C53.1188 74.8493 54.9161 73.052 57.1331 73.052C59.3501 73.052 61.1473 74.8493 61.1473 77.0663C61.1473 79.2833 59.3501 81.0806 57.1331 81.0806C54.9161 81.0806 53.1188 79.2833 53.1188 77.0663Z" fill="#E0A500"/>
<path fill-rule="evenodd" clip-rule="evenodd" d="M39.4292 74.3496C37.9288 74.3496 36.7125 75.5659 36.7125 77.0663C36.7125 78.5667 37.9288 79.783 39.4292 79.783C40.9296 79.783 42.1458 78.5667 42.1458 77.0663C42.1458 75.5659 40.9296 74.3496 39.4292 74.3496ZM35.4149 77.0663C35.4149 74.8493 37.2122 73.052 39.4292 73.052C41.6462 73.052 43.4434 74.8493 43.4434 77.0663C43.4434 79.2833 41.6462 81.0806 39.4292 81.0806C37.2122 81.0806 35.4149 79.2833 35.4149 77.0663Z" fill="#E0A500"/>
<path fill-rule="evenodd" clip-rule="evenodd" d="M64.7309 48.7884H26.6513V47.4909H64.7309V48.7884Z" fill="#E0A500"/>
<path fill-rule="evenodd" clip-rule="evenodd" d="M62.9925 56.9085H29.6347V55.6109H62.9925V56.9085Z" fill="#E0A500"/>
<path fill-rule="evenodd" clip-rule="evenodd" d="M38.5542 64.3803L31.4358 42.5075L32.6697 42.106L39.7881 63.9787L38.5542 64.3803Z" fill="#E0A500"/>
<path fill-rule="evenodd" clip-rule="evenodd" d="M53.4533 64.3803L60.5717 42.5075L59.3378 42.106L52.2195 63.9787L53.4533 64.3803Z" fill="#E0A500"/>
<path fill-rule="evenodd" clip-rule="evenodd" d="M42.9073 64.2432L40.8883 42.5038L42.1804 42.3838L44.1993 64.1232L42.9073 64.2432Z" fill="#E0A500"/>
<path fill-rule="evenodd" clip-rule="evenodd" d="M49.4579 63.8678L51.4769 42.1284L50.1848 42.0084L48.1659 63.7478L49.4579 63.8678Z" fill="#E0A500"/>
<circle cx="45.1245" cy="53.2883" r="45" fill="#FFBB00" fill-opacity="0.14"/>
<circle cx="72.7158" cy="15.4009" r="15" fill="#FFBB00"/>
<path d="M72.4299 20.4978C72.7476 20.4978 73.0497 20.4535 73.3362 20.365C73.6226 20.2764 73.8752 20.1306 74.094 19.9275C74.3127 19.7244 74.4872 19.4587 74.6174 19.1306C74.7476 18.8025 74.8127 18.3988 74.8127 17.9197C74.8127 17.2374 74.5549 16.6983 74.0393 16.3025C73.7893 16.1098 73.4846 15.9613 73.1252 15.8572C72.7659 15.7478 72.3622 15.6931 71.9143 15.6931H71.4065V14.8806H71.9143C72.6331 14.8806 73.2294 14.6567 73.7034 14.2087C73.9325 13.9952 74.1096 13.7374 74.2346 13.4353C74.3648 13.128 74.4299 12.7843 74.4299 12.4041C74.4299 11.7738 74.2971 11.2869 74.0315 10.9431C73.7711 10.5942 73.3336 10.4197 72.719 10.4197C72.2502 10.4197 71.8883 10.5264 71.6331 10.74C71.3778 10.9483 71.2008 11.2322 71.1018 11.5916C71.0028 11.9509 70.9534 12.3546 70.9534 12.8025C70.5575 12.8025 70.2294 12.7296 69.969 12.5837C69.7086 12.4327 69.5784 12.1593 69.5784 11.7634C69.5784 11.1176 69.844 10.6046 70.3752 10.2244C70.6409 10.0317 70.969 9.88322 71.3596 9.77905C71.7502 9.66968 72.2034 9.61499 72.719 9.61499C73.7346 9.61499 74.5471 9.83634 75.1565 10.2791C75.4482 10.4978 75.6747 10.766 75.8362 11.0837C75.9976 11.3962 76.0784 11.7556 76.0784 12.1619C76.0784 12.5212 76.0133 12.8598 75.8831 13.1775C75.7581 13.49 75.581 13.7764 75.3518 14.0369C74.8778 14.5681 74.2659 14.9249 73.5159 15.1072C73.6148 15.1176 73.7164 15.1306 73.8206 15.1462C73.9247 15.1619 74.0341 15.1827 74.1487 15.2087C74.6174 15.3181 75.0497 15.5082 75.4456 15.7791C75.6487 15.9249 75.8258 16.0968 75.9768 16.2947C76.1278 16.4978 76.2476 16.7348 76.3362 17.0056C76.4299 17.2712 76.4768 17.5811 76.4768 17.9353C76.4768 18.3728 76.4195 18.7556 76.3049 19.0837C76.1903 19.4223 76.0315 19.7192 75.8284 19.9744C75.6305 20.2244 75.3987 20.4379 75.1331 20.615C74.8726 20.7921 74.5888 20.9353 74.2815 21.0447C73.9794 21.1541 73.6695 21.2322 73.3518 21.2791C73.0341 21.3311 72.7216 21.3572 72.4143 21.3572C71.8883 21.3572 71.4351 21.3077 71.0549 21.2087C70.6747 21.115 70.3622 20.9874 70.1174 20.8259C69.8674 20.6645 69.6825 20.477 69.5627 20.2634C69.4482 20.0447 69.3909 19.8181 69.3909 19.5837C69.3909 19.2608 69.482 19.0108 69.6643 18.8337C69.8466 18.6514 70.0914 18.5603 70.3987 18.5603C70.3987 19.1384 70.5784 19.6072 70.9377 19.9666C71.3023 20.3207 71.7997 20.4978 72.4299 20.4978Z" fill="black"/>
</svg>
