<svg width="570" height="226" viewBox="0 0 570 226" fill="none" xmlns="http://www.w3.org/2000/svg">
<path d="M0.172053 180.705V149.277L92.7502 3.00616H118.958V47.7505H102.977L40.655 146.508V148.212H169.881V180.705H0.172053ZM104.256 221.188V171.117L104.682 157.054V3.00616H141.969V221.188H104.256ZM284.565 225.343C267.022 225.343 251.965 220.904 239.394 212.026C226.894 203.077 217.271 190.187 210.524 173.354C203.847 156.451 200.509 136.103 200.509 112.31C200.58 88.5175 203.954 68.2761 210.63 51.5857C217.377 34.8243 227.001 22.0403 239.501 13.2334C252.072 4.42662 267.093 0.0232074 284.565 0.0232074C302.036 0.0232074 317.058 4.42662 329.629 13.2334C342.2 22.0403 351.823 34.8243 358.499 51.5857C365.247 68.3471 368.62 88.5886 368.62 112.31C368.62 136.174 365.247 156.557 358.499 173.461C351.823 190.293 342.2 203.148 329.629 212.026C317.129 220.904 302.107 225.343 284.565 225.343ZM284.565 191.998C298.201 191.998 308.961 185.286 316.845 171.863C324.799 158.368 328.776 138.518 328.776 112.31C328.776 94.9806 326.965 80.4209 323.343 68.6312C319.721 56.8414 314.607 47.9636 308.002 41.9977C301.397 35.9607 293.585 32.9422 284.565 32.9422C270.999 32.9422 260.275 39.6894 252.392 53.1837C244.508 66.607 240.531 86.3158 240.46 112.31C240.389 129.711 242.129 144.341 245.68 156.202C249.302 168.063 254.416 177.012 261.021 183.049C267.626 189.015 275.474 191.998 284.565 191.998ZM400.074 180.705V149.277L492.653 3.00616H518.86V47.7505H502.88L440.557 146.508V148.212H569.783V180.705H400.074ZM504.158 221.188V171.117L504.584 157.054V3.00616H541.871V221.188H504.158Z" fill="#FFBB00"/>
</svg>
