<svg width="91" height="99" viewBox="0 0 91 99" fill="none" xmlns="http://www.w3.org/2000/svg">
<path d="M32.1428 69.0597V75.5282C32.1428 77.1851 33.486 78.5282 35.1428 78.5282H55.3803C57.0371 78.5282 58.3803 77.1851 58.3803 75.5282V69.0597M32.1428 69.0597V39.5483C32.1428 37.8915 33.486 36.5483 35.1428 36.5483H55.3803C57.0371 36.5483 58.3803 37.8915 58.3803 39.5483V69.0597M32.1428 69.0597H58.3803" stroke="#FFBB00" stroke-width="3"/>
<circle cx="45.2615" cy="73.8677" r="1.97319" fill="#FFBB00"/>
<rect x="37.4438" y="41.8635" width="5.24749" height="5.24749" rx="1" stroke="#FFBB00" stroke-width="2"/>
<rect x="47.975" y="41.8638" width="5.24749" height="5.24749" rx="1" stroke="#FFBB00" stroke-width="2"/>
<rect x="37.4438" y="59.489" width="5.24749" height="5.24749" rx="1" stroke="#FFBB00" stroke-width="2"/>
<rect x="47.975" y="59.489" width="5.24749" height="5.24749" rx="1" stroke="#FFBB00" stroke-width="2"/>
<rect x="37.4438" y="50.6763" width="5.24749" height="5.24749" rx="1" stroke="#FFBB00" stroke-width="2"/>
<rect x="47.975" y="50.6765" width="5.24749" height="5.24749" rx="1" stroke="#FFBB00" stroke-width="2"/>
<circle cx="45.7889" cy="53.5945" r="45" fill="#FFBB00" fill-opacity="0.14"/>
<circle cx="73.3802" cy="15.707" r="15" fill="#FFBB00"/>
<path d="M76.1016 21.2288V21.9006H70.0078V21.2288H71.0781C71.4792 21.2288 71.7969 21.1558 72.0312 21.01C72.2708 20.8642 72.3906 20.5543 72.3906 20.0803V11.6741C72.0417 12.1012 71.6927 12.4866 71.3438 12.8303C70.9948 13.1689 70.6562 13.3381 70.3281 13.3381C70.0938 13.3381 69.901 13.26 69.75 13.1038C69.599 12.9423 69.5234 12.734 69.5234 12.4788C69.8932 12.385 70.2552 12.2444 70.6094 12.0569C70.9688 11.8642 71.3854 11.5933 71.8594 11.2444L72.9844 10.4163H74.0078V20.0803C74.0078 20.5491 74.125 20.859 74.3594 21.01C74.599 21.1558 74.9193 21.2288 75.3203 21.2288H76.1016Z" fill="black"/>
</svg>
