<svg width="91" height="99" viewBox="0 0 91 99" fill="none" xmlns="http://www.w3.org/2000/svg">
<path fill-rule="evenodd" clip-rule="evenodd" d="M32.3059 44.5884C30.9953 44.5884 29.9409 45.6445 29.9409 46.9374C29.9409 48.2302 30.9953 49.2863 32.3059 49.2863C33.6166 49.2863 34.6709 48.2302 34.6709 46.9374C34.6709 45.6445 33.6166 44.5884 32.3059 44.5884ZM27.9409 46.9374C27.9409 44.531 29.8997 42.5884 32.3059 42.5884C34.7121 42.5884 36.6709 44.531 36.6709 46.9374C36.6709 49.3437 34.7121 51.2863 32.3059 51.2863C29.8997 51.2863 27.9409 49.3437 27.9409 46.9374Z" fill="#FFBB00"/>
<path fill-rule="evenodd" clip-rule="evenodd" d="M19.7109 38.6255C20.6369 39.3604 21.4621 40.4884 21.9922 41.487C24.2004 45.6464 27.3911 49.5811 30.9934 50.5266C34.4691 51.4389 38.6599 49.6325 43.0687 41.343C43.5441 40.4492 44.1587 39.5039 44.9079 38.8911C45.6873 38.2536 46.6501 37.9545 47.6914 38.4975C48.7139 39.0306 49.0935 40.2382 49.1294 41.3396C49.1649 42.4265 48.8887 43.5898 48.4463 44.4869C45.6228 50.2114 42.6521 53.9087 39.6369 56.0098V56.0098C38.8694 56.5446 38.303 57.3447 38.1829 58.2724L37.2914 65.159V79.8381H27.382V65.159L26.8018 58.2495C26.7215 57.293 26.1793 56.4451 25.4064 55.8761C21.9285 53.3155 18.9105 49.2442 16.648 45.5071C16.0277 44.4823 15.423 43.2236 15.2292 41.966C15.1298 41.3213 15.1312 40.6301 15.3297 39.9645C15.5316 39.2873 15.9122 38.7222 16.4542 38.2915C17.5763 37.3996 18.8112 37.9114 19.7109 38.6255ZM35.2914 65.159H29.382V77.8381H31.4078V67.9276H33.4078V77.8381H35.2914V65.159ZM36.374 57.1933L35.505 62.6439H29.0058L28.674 57.1933V56.5807C28.674 55.8415 28.2624 55.17 27.6484 54.7583C24.5028 52.6493 20.2092 48.1057 17.8985 44.2889C17.3255 43.3425 16.8997 42.3814 16.7765 41.5822C16.7174 41.1984 16.7358 40.9019 16.8044 40.672C16.8695 40.4537 17.003 40.2154 17.2913 39.9863C17.6344 39.7136 18.1494 39.7454 18.8747 40.321C19.5737 40.8758 20.2488 41.7834 20.6845 42.6041C22.9695 46.9084 26.462 51.3795 30.674 52.4851C35.0126 53.624 39.7671 51.1268 44.3757 42.4615C44.8054 41.6537 45.2772 40.9688 45.7623 40.572C46.2172 40.1999 46.6366 40.1098 47.092 40.3473C47.3523 40.483 47.5337 40.7968 47.5541 41.4223C47.575 42.0623 47.4029 42.8316 47.1097 43.4261C44.3826 48.9551 41.5908 52.3664 38.8778 54.2569C38.5446 54.5253 38.2671 54.7253 38.0305 54.8779C37.1735 55.4306 36.4834 56.1793 36.374 57.1933V57.1933Z" fill="#FFBB00"/>
<path fill-rule="evenodd" clip-rule="evenodd" d="M60.8745 57.9269C59.9766 57.9269 59.2544 58.6504 59.2544 59.536C59.2544 60.4215 59.9766 61.145 60.8745 61.145C61.7723 61.145 62.4945 60.4215 62.4945 59.536C62.4945 58.6504 61.7723 57.9269 60.8745 57.9269ZM57.8844 59.536C57.8844 57.8876 59.2262 56.5569 60.8745 56.5569C62.5227 56.5569 63.8645 57.8876 63.8645 59.536C63.8645 61.1843 62.5227 62.515 60.8745 62.515C59.2262 62.515 57.8844 61.1843 57.8844 59.536Z" fill="#FFBB00"/>
<path fill-rule="evenodd" clip-rule="evenodd" d="M52.2468 53.8422C52.8811 54.3456 53.4464 55.1183 53.8095 55.8024C55.3221 58.6516 57.5078 61.3469 59.9754 61.9946C62.3563 62.6195 65.227 61.3821 68.247 55.7037C68.5727 55.0914 68.9937 54.4439 69.5069 54.0242C70.0408 53.5875 70.7004 53.3826 71.4136 53.7545C72.1141 54.1197 72.3741 54.9469 72.3987 55.7014C72.423 56.446 72.2338 57.2428 71.9307 57.8573C69.9966 61.7787 67.9617 64.3113 65.8963 65.7506V65.7506C65.3705 66.117 64.9825 66.665 64.9003 67.3005L64.2896 72.0179V82.0732H57.5016V72.0179L57.1444 67.7643C57.0641 66.8078 56.5178 65.9629 55.7658 65.3665C53.5445 63.605 51.615 60.9781 50.1487 58.5561C49.7238 57.8542 49.3096 56.9919 49.1768 56.1305C49.1087 55.6889 49.1097 55.2154 49.2456 54.7595C49.384 54.2955 49.6447 53.9085 50.0159 53.6134C50.7846 53.0025 51.6305 53.3531 52.2468 53.8422ZM62.9196 72.0179H58.8716V80.7031H60.2592V73.9143H61.6293V80.7031H62.9196V72.0179ZM63.6611 66.5613L63.0658 70.295H58.6139L58.3866 66.5613V66.52C58.3866 65.7808 57.9739 65.1087 57.3734 64.6775C55.2543 63.1555 52.5133 60.2126 51.0053 57.7217C50.6128 57.0734 50.3211 56.4151 50.2368 55.8676C50.1962 55.6047 50.2089 55.4016 50.2558 55.2441C50.3004 55.0946 50.3919 54.9313 50.5893 54.7744C50.8244 54.5876 51.1772 54.6094 51.674 55.0037C52.1529 55.3837 52.6153 56.0054 52.9137 56.5676C54.479 59.516 56.8713 62.5788 59.7566 63.3362C62.7286 64.1163 65.9854 62.4057 69.1424 56.4699C69.4367 55.9165 69.7599 55.4474 70.0922 55.1756C70.4038 54.9207 70.6911 54.859 71.003 55.0217C71.1813 55.1146 71.3056 55.3296 71.3196 55.758C71.3339 56.1965 71.216 56.7235 71.0151 57.1307C69.1471 60.9181 67.2347 63.2548 65.3763 64.5498C65.148 64.7337 64.9579 64.8707 64.7959 64.9752C64.2088 65.3539 63.7361 65.8667 63.6611 66.5613V66.5613Z" fill="#FFBB00"/>
<circle cx="45.4645" cy="53.2883" r="45" fill="#FFBB00" fill-opacity="0.14"/>
<circle cx="73.0558" cy="15.4009" r="15" fill="#FFBB00"/>
<path d="M77.2404 16.4539V17.3523H75.256V18.6648C75.256 19.1388 75.3758 19.4486 75.6154 19.5945C75.8549 19.7403 76.1726 19.8132 76.5685 19.8132H76.7794V20.4851H71.9591V19.8132H72.4122C72.8133 19.8132 73.131 19.7403 73.3654 19.5945C73.6049 19.4486 73.7247 19.1388 73.7247 18.6648V17.3523H68.795V16.696L73.7404 9.06323H75.256V16.4539H77.2404ZM69.9435 16.4539H73.7247V13.4929C73.7247 13.2273 73.7273 12.8888 73.7325 12.4773C73.743 12.0606 73.756 11.644 73.7716 11.2273C73.7924 10.8054 73.8133 10.4565 73.8341 10.1804C73.782 10.2794 73.6857 10.4539 73.545 10.7039C73.4044 10.9539 73.282 11.1726 73.1779 11.3601C73.1258 11.4486 73.045 11.5841 72.9357 11.7664C72.8263 11.9486 72.7195 12.1257 72.6154 12.2976C72.5112 12.4643 72.4383 12.5789 72.3966 12.6414L69.9435 16.4539Z" fill="black"/>
<path d="M36.6709 33.7847C38.7699 33.399 39.4898 32.6293 40.0546 30.401C40.7615 32.6524 41.4955 33.3882 43.4383 33.7847C41.1232 34.3889 40.4379 35.1502 40.0546 37.1684C39.6479 34.9061 38.8835 34.1914 36.6709 33.7847Z" fill="#FFBB00"/>
<path d="M63.8645 47.9026C65.9635 47.5169 66.6834 46.7472 67.2482 44.5189C67.9551 46.7703 68.6891 47.5061 70.6319 47.9026C68.3168 48.5068 67.6315 49.2681 67.2482 51.2863C66.8415 49.024 66.0771 48.3093 63.8645 47.9026Z" fill="#FFBB00"/>
</svg>
