<svg width="187" height="148" viewBox="0 0 187 148" fill="none" xmlns="http://www.w3.org/2000/svg">
<path d="M44.5825 66.8687V74.0143L51.252 81.3306C51.7899 81.9205 52.4246 82.4142 53.1289 82.7901L62.0034 87.5271M92.1823 66.8687V73.335L85.8835 81.2403C85.3662 81.8896 84.7374 82.4417 84.0267 82.8708L76.314 87.5271M92.3028 74.8701L121.456 85.0163M44.2522 74.7771L10.7009 87.077C5.97396 88.8099 2.8313 93.3091 2.8313 98.3437V139.818C2.8313 142.58 5.06988 144.818 7.8313 144.818H128.112M104.441 38.6082C104.441 58.5229 88.2971 74.667 68.3824 74.667C48.4676 74.667 32.3235 58.5229 32.3235 38.6082C32.3235 18.6934 48.4676 2.54932 68.3824 2.54932C88.2971 2.54932 104.441 18.6934 104.441 38.6082ZM65.3824 102.76H71.3824C74.1438 102.76 76.3824 100.521 76.3824 97.76V91.76C76.3824 88.9986 74.1438 86.76 71.3824 86.76H65.3824C62.621 86.76 60.3824 88.9986 60.3824 91.76V97.76C60.3824 100.521 62.621 102.76 65.3824 102.76ZM41.6324 88.5157V102.709C41.6324 103.439 42.3891 103.923 43.0517 103.617L58.4169 96.5204C59.1911 96.1628 59.1911 95.0623 58.4169 94.7047L43.0517 87.6078C42.3891 87.3018 41.6324 87.7858 41.6324 88.5157ZM95.1324 88.5157V102.709C95.1324 103.439 94.3757 103.923 93.7131 103.617L78.3479 96.5204C77.5737 96.1628 77.5737 95.0623 78.3479 94.7047L93.7131 87.6078C94.3757 87.3018 95.1324 87.7858 95.1324 88.5157Z" stroke="#FFBB00" stroke-width="5"/>
<path d="M27.5386 113.012C27.5386 111.631 26.4193 110.512 25.0386 110.512C23.6579 110.512 22.5386 111.631 22.5386 113.012H27.5386ZM22.5386 113.012V144.818H27.5386V113.012H22.5386Z" fill="#FFBB00"/>
<rect x="79.7283" y="113.012" width="18.0053" height="11.1978" rx="1" stroke="#FFBB00" stroke-width="5"/>
<rect x="119.447" y="79.8184" width="65" height="65" rx="8" stroke="#FFBB00" stroke-width="5"/>
<path d="M151.947 79.8184C151.947 71.5265 146.574 64.8047 139.947 64.8047C133.32 64.8047 127.947 71.5265 127.947 79.8184" stroke="#FFBB00" stroke-width="5"/>
<path d="M167.436 79.8184C167.436 71.5265 162.063 64.8047 155.436 64.8047C148.809 64.8047 143.436 71.5265 143.436 79.8184" stroke="#FFBB00" stroke-width="5"/>
<path d="M160.724 134.837V120.588M160.724 120.588V96.9446C167.363 96.9446 169.232 102.999 169.336 106.026V119.588C169.336 120.141 168.889 120.588 168.336 120.588H160.724Z" stroke="#FFBB00" stroke-width="5" stroke-linecap="round"/>
<path d="M137.614 134.837C137.614 136.218 138.733 137.337 140.114 137.337C141.495 137.337 142.614 136.218 142.614 134.837H137.614ZM135.376 96.9446C135.376 95.5639 134.257 94.4446 132.876 94.4446C131.495 94.4446 130.376 95.5639 130.376 96.9446H135.376ZM142.447 96.9446C142.447 95.5639 141.328 94.4446 139.947 94.4446C138.566 94.4446 137.447 95.5639 137.447 96.9446H142.447ZM149.518 96.9446C149.518 95.5639 148.399 94.4446 147.018 94.4446C145.637 94.4446 144.518 95.5639 144.518 96.9446H149.518ZM142.614 134.837V110.271H137.614V134.837H142.614ZM135.376 109.271V96.9446H130.376V109.271H135.376ZM133.876 112.771H139.947V107.771H133.876V112.771ZM139.947 112.771H146.018V107.771H139.947V112.771ZM142.447 110.271V96.9446H137.447V110.271H142.447ZM149.518 109.271V96.9446H144.518V109.271H149.518ZM146.018 112.771C147.951 112.771 149.518 111.204 149.518 109.271H144.518C144.518 108.442 145.19 107.771 146.018 107.771V112.771ZM130.376 109.271C130.376 111.204 131.943 112.771 133.876 112.771V107.771C134.704 107.771 135.376 108.442 135.376 109.271H130.376Z" fill="#FFBB00"/>
</svg>
