<svg width="402" height="83" viewBox="0 0 402 83" fill="none" xmlns="http://www.w3.org/2000/svg">
<path d="M0.347391 9.7487V3.5207H21.4434V9.7487H14.3874V28.7207H7.40339V9.7487H0.347391ZM34.2538 18.6407C34.2538 17.7767 34.1098 17.1167 33.8218 16.6607C33.5338 16.1807 32.9818 15.9407 32.1658 15.9407C31.4218 15.9407 30.8218 16.1687 30.3658 16.6247C29.9338 17.0807 29.7178 17.7527 29.7178 18.6407V28.7207H23.4898V0.640702H29.7178V14.3207C30.1738 13.4567 30.8098 12.7727 31.6258 12.2687C32.4658 11.7407 33.5218 11.4767 34.7938 11.4767C36.9298 11.4767 38.4058 12.0167 39.2218 13.0967C40.0618 14.1767 40.4818 15.7127 40.4818 17.7047V28.7207H34.2538V18.6407ZM53.4429 29.0807C50.3709 29.0807 47.9589 28.3127 46.2069 26.7767C44.4549 25.2167 43.5789 23.1047 43.5789 20.4407C43.5789 17.7287 44.4309 15.6167 46.1349 14.1047C47.8389 12.5687 50.2029 11.8007 53.2269 11.8007C56.2269 11.8007 58.5189 12.5207 60.1029 13.9607C61.7109 15.4007 62.5149 17.4647 62.5149 20.1527C62.5149 20.4407 62.5029 20.7287 62.4789 21.0167C62.4789 21.2807 62.4669 21.5207 62.4429 21.7367H49.9149C50.2509 23.7767 51.3549 24.7967 53.2269 24.7967C55.0509 24.7967 56.3229 24.1607 57.0429 22.8887L62.6589 24.0047C60.8829 27.3887 57.8109 29.0807 53.4429 29.0807ZM53.0829 15.7607C51.3789 15.7607 50.3469 16.6847 49.9869 18.5327H55.8549C55.8069 17.6687 55.5309 16.9967 55.0269 16.5167C54.5229 16.0127 53.8749 15.7607 53.0829 15.7607ZM98.0334 21.7007C98.0334 24.2207 97.1214 26.0207 95.2974 27.1007C93.4974 28.1807 91.0254 28.7207 87.8814 28.7207H77.1174V3.5207H87.2334C89.0094 3.5207 90.6054 3.7607 92.0214 4.2407C93.4374 4.7207 94.5534 5.4407 95.3694 6.4007C96.1854 7.3607 96.5934 8.5487 96.5934 9.9647C96.5934 11.1647 96.2694 12.2207 95.6214 13.1327C94.9974 14.0207 94.1334 14.7287 93.0294 15.2567C94.4454 15.7847 95.6334 16.5767 96.5934 17.6327C97.5534 18.6887 98.0334 20.0447 98.0334 21.7007ZM86.3694 8.8487H84.1014V13.4927H86.3694C87.3294 13.4927 88.0614 13.2767 88.5654 12.8447C89.0694 12.4127 89.3214 11.8247 89.3214 11.0807C89.3214 9.5927 88.3374 8.8487 86.3694 8.8487ZM84.1014 23.3927H87.0174C88.0494 23.3927 88.9254 23.2247 89.6454 22.8887C90.3894 22.5287 90.7614 21.7847 90.7614 20.6567C90.7614 19.6967 90.3894 19.0487 89.6454 18.7127C88.9254 18.3767 88.0494 18.2087 87.0174 18.2087H84.1014V23.3927ZM110.537 29.0807C107.465 29.0807 105.053 28.3127 103.301 26.7767C101.549 25.2167 100.673 23.1047 100.673 20.4407C100.673 17.7287 101.525 15.6167 103.229 14.1047C104.933 12.5687 107.297 11.8007 110.321 11.8007C113.321 11.8007 115.613 12.5207 117.197 13.9607C118.805 15.4007 119.609 17.4647 119.609 20.1527C119.609 20.4407 119.597 20.7287 119.573 21.0167C119.573 21.2807 119.561 21.5207 119.537 21.7367H107.009C107.345 23.7767 108.449 24.7967 110.321 24.7967C112.145 24.7967 113.417 24.1607 114.137 22.8887L119.753 24.0047C117.977 27.3887 114.905 29.0807 110.537 29.0807ZM110.177 15.7607C108.473 15.7607 107.441 16.6847 107.081 18.5327H112.949C112.901 17.6687 112.625 16.9967 112.121 16.5167C111.617 16.0127 110.969 15.7607 110.177 15.7607ZM123.742 22.4207C125.23 23.5727 126.442 24.3047 127.378 24.6167C128.338 24.9287 129.046 25.0847 129.502 25.0847C129.958 25.0847 130.294 24.9887 130.51 24.7967C130.726 24.5807 130.834 24.3167 130.834 24.0047C130.834 23.7167 130.738 23.4767 130.546 23.2847C130.378 23.0687 130.042 22.8527 129.538 22.6367C129.058 22.4207 128.338 22.1567 127.378 21.8447C126.586 21.5807 125.83 21.2567 125.11 20.8727C124.39 20.4647 123.802 19.9247 123.346 19.2527C122.914 18.5567 122.698 17.6687 122.698 16.5887C122.698 15.0527 123.286 13.8767 124.462 13.0607C125.662 12.2207 127.222 11.8007 129.142 11.8007C130.606 11.8007 131.938 12.0167 133.138 12.4487C134.338 12.8807 135.49 13.4087 136.594 14.0327L134.758 18.1727C134.014 17.5007 133.162 16.9607 132.202 16.5527C131.242 16.1207 130.402 15.9047 129.682 15.9047C129.226 15.9047 128.89 15.9887 128.674 16.1567C128.482 16.3247 128.386 16.5287 128.386 16.7687C128.386 17.2727 128.71 17.6447 129.358 17.8847C130.006 18.1007 130.99 18.4607 132.31 18.9647C133.126 19.2767 133.894 19.6247 134.614 20.0087C135.334 20.3927 135.91 20.9087 136.342 21.5567C136.798 22.1807 137.026 23.0087 137.026 24.0407C137.026 25.9127 136.462 27.2927 135.334 28.1807C134.23 29.0687 132.658 29.5127 130.618 29.5127C128.77 29.5127 127.114 29.2487 125.65 28.7207C124.186 28.1927 122.794 27.5087 121.474 26.6687L123.742 22.4207ZM137.987 12.1607H140.975V6.4007H146.915V12.1607H149.903V17.2007H146.915V28.7207H140.975V17.2007H137.987V12.1607ZM187.149 16.6607L191.577 3.5207H199.929L188.733 30.2687L180.417 16.3727L172.137 30.2687L160.941 3.5207H169.293L173.721 16.6607L180.417 2.2607L187.149 16.6607ZM200.444 17.5967L198.464 13.5287C199.52 13.0727 200.732 12.6527 202.1 12.2687C203.492 11.8607 204.968 11.6567 206.528 11.6567C208.04 11.6567 209.396 11.8727 210.596 12.3047C211.82 12.7367 212.78 13.3607 213.476 14.1767C214.196 14.9927 214.556 15.9767 214.556 17.1287V28.7207H208.616V26.4167C208.136 27.2807 207.404 27.9407 206.42 28.3967C205.436 28.8527 204.344 29.0807 203.144 29.0807C202.064 29.0807 201.068 28.8887 200.156 28.5047C199.268 28.0967 198.548 27.5087 197.996 26.7407C197.468 25.9727 197.204 25.0127 197.204 23.8607C197.204 22.2767 197.768 21.0287 198.896 20.1167C200.024 19.2047 201.632 18.7487 203.72 18.7487C204.68 18.7487 205.58 18.8447 206.42 19.0367C207.284 19.2287 208.016 19.4687 208.616 19.7567V18.6047C208.616 17.8847 208.376 17.3207 207.896 16.9127C207.44 16.4807 206.696 16.2647 205.664 16.2647C204.968 16.2647 204.26 16.3487 203.54 16.5167C202.82 16.6847 202.172 16.8767 201.596 17.0927C201.044 17.3087 200.66 17.4767 200.444 17.5967ZM203.468 23.5367C203.468 24.0887 203.66 24.5087 204.044 24.7967C204.452 25.0847 204.932 25.2287 205.484 25.2287C206.228 25.2287 206.9 25.0127 207.5 24.5807C208.124 24.1247 208.484 23.4287 208.58 22.4927C207.716 22.1327 206.768 21.9527 205.736 21.9527C204.92 21.9527 204.332 22.0847 203.972 22.3487C203.636 22.6127 203.468 23.0087 203.468 23.5367ZM236.292 12.1607L225.492 36.6407H219.336L223.224 27.6767L215.808 12.1607H222.576L226.284 21.4487L229.992 12.1607H236.292ZM246.722 9.7487V3.5207H267.818V9.7487H260.762V28.7207H253.778V9.7487H246.722ZM265.415 20.4407C265.415 18.6647 265.835 17.1287 266.675 15.8327C267.515 14.5367 268.667 13.5407 270.131 12.8447C271.619 12.1247 273.287 11.7647 275.135 11.7647C277.007 11.7647 278.675 12.1247 280.139 12.8447C281.603 13.5407 282.755 14.5367 283.595 15.8327C284.459 17.1287 284.891 18.6647 284.891 20.4407C284.891 22.2167 284.459 23.7527 283.595 25.0487C282.755 26.3207 281.603 27.3167 280.139 28.0367C278.675 28.7327 277.007 29.0807 275.135 29.0807C273.287 29.0807 271.619 28.7327 270.131 28.0367C268.667 27.3167 267.515 26.3207 266.675 25.0487C265.835 23.7527 265.415 22.2167 265.415 20.4407ZM271.823 20.4407C271.823 21.5927 272.147 22.4807 272.795 23.1047C273.467 23.7287 274.247 24.0407 275.135 24.0407C276.023 24.0407 276.803 23.7287 277.475 23.1047C278.147 22.4807 278.483 21.5927 278.483 20.4407C278.483 19.2887 278.147 18.4007 277.475 17.7767C276.803 17.1287 276.023 16.8047 275.135 16.8047C274.247 16.8047 273.467 17.1287 272.795 17.7767C272.147 18.4007 271.823 19.2887 271.823 20.4407ZM297.935 16.1207C297.935 14.1287 298.283 12.3287 298.979 10.7207C299.675 9.0887 300.647 7.6967 301.895 6.5447C303.167 5.3687 304.631 4.4687 306.287 3.8447C307.967 3.1967 309.779 2.8727 311.723 2.8727C313.715 2.8727 315.551 3.1967 317.231 3.8447C318.911 4.4687 320.363 5.3687 321.587 6.5447C322.835 7.6967 323.795 9.0887 324.467 10.7207C325.163 12.3287 325.511 14.1287 325.511 16.1207C325.511 18.1127 325.175 19.9367 324.503 21.5927C323.831 23.2247 322.883 24.6527 321.659 25.8767C320.435 27.0767 318.971 28.0127 317.267 28.6847C315.587 29.3327 313.739 29.6567 311.723 29.6567C309.707 29.6567 307.859 29.3327 306.179 28.6847C304.499 28.0127 303.035 27.0767 301.787 25.8767C300.563 24.6527 299.615 23.2247 298.943 21.5927C298.271 19.9367 297.935 18.1127 297.935 16.1207ZM305.315 16.1207C305.315 18.1607 305.891 19.8287 307.043 21.1247C308.219 22.3967 309.779 23.0327 311.723 23.0327C313.691 23.0327 315.251 22.3967 316.403 21.1247C317.555 19.8287 318.131 18.1607 318.131 16.1207C318.131 14.0807 317.567 12.4247 316.439 11.1527C315.335 9.8567 313.763 9.2087 311.723 9.2087C309.779 9.2087 308.219 9.8567 307.043 11.1527C305.891 12.4247 305.315 14.0807 305.315 16.1207ZM339.446 18.5327C339.182 18.2447 338.882 18.0167 338.546 17.8487C338.21 17.6567 337.814 17.5607 337.358 17.5607C336.638 17.5607 336.014 17.8607 335.486 18.4607C334.982 19.0367 334.73 19.9247 334.73 21.1247V28.7207H328.646V12.1607H334.73V14.2847C335.258 13.4927 335.906 12.8687 336.674 12.4127C337.442 11.9567 338.246 11.7287 339.086 11.7287C339.686 11.7287 340.262 11.8727 340.814 12.1607C341.366 12.4487 341.774 12.7847 342.038 13.1687L339.446 18.5327ZM343.321 20.4407C343.321 18.5447 343.693 16.9607 344.437 15.6887C345.205 14.4167 346.177 13.4567 347.353 12.8087C348.529 12.1367 349.777 11.8007 351.097 11.8007C353.521 11.8007 355.405 12.7727 356.749 14.7167V0.640702H362.977V28.7207H356.749V26.1647C355.405 28.1087 353.521 29.0807 351.097 29.0807C349.777 29.0807 348.529 28.7567 347.353 28.1087C346.177 27.4367 345.205 26.4647 344.437 25.1927C343.693 23.9207 343.321 22.3367 343.321 20.4407ZM349.873 20.4407C349.873 21.5447 350.209 22.4447 350.881 23.1407C351.577 23.8367 352.393 24.1847 353.329 24.1847C354.169 24.1847 354.949 23.8607 355.669 23.2127C356.389 22.5407 356.749 21.6167 356.749 20.4407C356.749 19.2647 356.389 18.3527 355.669 17.7047C354.949 17.0327 354.169 16.6967 353.329 16.6967C352.393 16.6967 351.577 17.0447 350.881 17.7407C350.209 18.4367 349.873 19.3367 349.873 20.4407ZM375.896 29.0807C372.824 29.0807 370.412 28.3127 368.66 26.7767C366.908 25.2167 366.032 23.1047 366.032 20.4407C366.032 17.7287 366.884 15.6167 368.588 14.1047C370.292 12.5687 372.656 11.8007 375.68 11.8007C378.68 11.8007 380.972 12.5207 382.556 13.9607C384.164 15.4007 384.968 17.4647 384.968 20.1527C384.968 20.4407 384.956 20.7287 384.932 21.0167C384.932 21.2807 384.92 21.5207 384.896 21.7367H372.368C372.704 23.7767 373.808 24.7967 375.68 24.7967C377.504 24.7967 378.776 24.1607 379.496 22.8887L385.112 24.0047C383.336 27.3887 380.264 29.0807 375.896 29.0807ZM375.536 15.7607C373.832 15.7607 372.8 16.6847 372.44 18.5327H378.308C378.26 17.6687 377.984 16.9967 377.48 16.5167C376.976 16.0127 376.328 15.7607 375.536 15.7607ZM398.966 18.5327C398.702 18.2447 398.402 18.0167 398.066 17.8487C397.73 17.6567 397.334 17.5607 396.878 17.5607C396.158 17.5607 395.534 17.8607 395.006 18.4607C394.502 19.0367 394.25 19.9247 394.25 21.1247V28.7207H388.166V12.1607H394.25V14.2847C394.778 13.4927 395.426 12.8687 396.194 12.4127C396.962 11.9567 397.766 11.7287 398.606 11.7287C399.206 11.7287 399.782 11.8727 400.334 12.1607C400.886 12.4487 401.294 12.7847 401.558 13.1687L398.966 18.5327ZM82.426 55.5207H98.446V61.4607H89.122V65.7447H98.086V71.2527H89.122V80.7207H82.426V55.5207ZM100.356 72.4407C100.356 70.6647 100.776 69.1287 101.616 67.8327C102.456 66.5367 103.608 65.5407 105.072 64.8447C106.56 64.1247 108.228 63.7647 110.076 63.7647C111.948 63.7647 113.616 64.1247 115.08 64.8447C116.544 65.5407 117.696 66.5367 118.536 67.8327C119.4 69.1287 119.832 70.6647 119.832 72.4407C119.832 74.2167 119.4 75.7527 118.536 77.0487C117.696 78.3207 116.544 79.3167 115.08 80.0367C113.616 80.7327 111.948 81.0807 110.076 81.0807C108.228 81.0807 106.56 80.7327 105.072 80.0367C103.608 79.3167 102.456 78.3207 101.616 77.0487C100.776 75.7527 100.356 74.2167 100.356 72.4407ZM106.764 72.4407C106.764 73.5927 107.088 74.4807 107.736 75.1047C108.408 75.7287 109.188 76.0407 110.076 76.0407C110.964 76.0407 111.744 75.7287 112.416 75.1047C113.088 74.4807 113.424 73.5927 113.424 72.4407C113.424 71.2887 113.088 70.4007 112.416 69.7767C111.744 69.1287 110.964 68.8047 110.076 68.8047C109.188 68.8047 108.408 69.1287 107.736 69.7767C107.088 70.4007 106.764 71.2887 106.764 72.4407ZM122.048 72.4407C122.048 70.6647 122.468 69.1287 123.308 67.8327C124.148 66.5367 125.3 65.5407 126.764 64.8447C128.252 64.1247 129.92 63.7647 131.768 63.7647C133.64 63.7647 135.308 64.1247 136.772 64.8447C138.236 65.5407 139.388 66.5367 140.228 67.8327C141.092 69.1287 141.524 70.6647 141.524 72.4407C141.524 74.2167 141.092 75.7527 140.228 77.0487C139.388 78.3207 138.236 79.3167 136.772 80.0367C135.308 80.7327 133.64 81.0807 131.768 81.0807C129.92 81.0807 128.252 80.7327 126.764 80.0367C125.3 79.3167 124.148 78.3207 123.308 77.0487C122.468 75.7527 122.048 74.2167 122.048 72.4407ZM128.456 72.4407C128.456 73.5927 128.78 74.4807 129.428 75.1047C130.1 75.7287 130.88 76.0407 131.768 76.0407C132.656 76.0407 133.436 75.7287 134.108 75.1047C134.78 74.4807 135.116 73.5927 135.116 72.4407C135.116 71.2887 134.78 70.4007 134.108 69.7767C133.436 69.1287 132.656 68.8047 131.768 68.8047C130.88 68.8047 130.1 69.1287 129.428 69.7767C128.78 70.4007 128.456 71.2887 128.456 72.4407ZM143.739 72.4407C143.739 70.5447 144.111 68.9607 144.855 67.6887C145.623 66.4167 146.595 65.4567 147.771 64.8087C148.947 64.1367 150.195 63.8007 151.515 63.8007C153.939 63.8007 155.823 64.7727 157.167 66.7167V52.6407H163.395V80.7207H157.167V78.1647C155.823 80.1087 153.939 81.0807 151.515 81.0807C150.195 81.0807 148.947 80.7567 147.771 80.1087C146.595 79.4367 145.623 78.4647 144.855 77.1927C144.111 75.9207 143.739 74.3367 143.739 72.4407ZM150.291 72.4407C150.291 73.5447 150.627 74.4447 151.299 75.1407C151.995 75.8367 152.811 76.1847 153.747 76.1847C154.587 76.1847 155.367 75.8607 156.087 75.2127C156.807 74.5407 157.167 73.6167 157.167 72.4407C157.167 71.2647 156.807 70.3527 156.087 69.7047C155.367 69.0327 154.587 68.6967 153.747 68.6967C152.811 68.6967 151.995 69.0447 151.299 69.7407C150.627 70.4367 150.291 71.3367 150.291 72.4407Z" fill="black"/>
<path d="M195.567 80.7207L193.443 76.6527H186.027L183.939 80.7207H176.019L189.735 53.8287L203.487 80.7207H195.567ZM189.735 65.8527L187.251 71.5047H192.219L189.735 65.8527ZM203.553 64.1607H206.541V58.4007H212.481V64.1607H215.469V69.2007H212.481V80.7207H206.541V69.2007H203.553V64.1607ZM252.716 68.6607L257.144 55.5207H265.496L254.3 82.2687L245.984 68.3727L237.704 82.2687L226.508 55.5207H234.86L239.288 68.6607L245.984 54.2607L252.716 68.6607ZM263.798 72.4407C263.798 70.6647 264.218 69.1287 265.058 67.8327C265.898 66.5367 267.05 65.5407 268.514 64.8447C270.002 64.1247 271.67 63.7647 273.518 63.7647C275.39 63.7647 277.058 64.1247 278.522 64.8447C279.986 65.5407 281.138 66.5367 281.978 67.8327C282.842 69.1287 283.274 70.6647 283.274 72.4407C283.274 74.2167 282.842 75.7527 281.978 77.0487C281.138 78.3207 279.986 79.3167 278.522 80.0367C277.058 80.7327 275.39 81.0807 273.518 81.0807C271.67 81.0807 270.002 80.7327 268.514 80.0367C267.05 79.3167 265.898 78.3207 265.058 77.0487C264.218 75.7527 263.798 74.2167 263.798 72.4407ZM270.206 72.4407C270.206 73.5927 270.53 74.4807 271.178 75.1047C271.85 75.7287 272.63 76.0407 273.518 76.0407C274.406 76.0407 275.186 75.7287 275.858 75.1047C276.53 74.4807 276.866 73.5927 276.866 72.4407C276.866 71.2887 276.53 70.4007 275.858 69.7767C275.186 69.1287 274.406 68.8047 273.518 68.8047C272.63 68.8047 271.85 69.1287 271.178 69.7767C270.53 70.4007 270.206 71.2887 270.206 72.4407ZM297.153 70.5327C296.889 70.2447 296.589 70.0167 296.253 69.8487C295.917 69.6567 295.521 69.5607 295.065 69.5607C294.345 69.5607 293.721 69.8607 293.193 70.4607C292.689 71.0367 292.437 71.9247 292.437 73.1247V80.7207H286.353V64.1607H292.437V66.2847C292.965 65.4927 293.613 64.8687 294.381 64.4127C295.149 63.9567 295.953 63.7287 296.793 63.7287C297.393 63.7287 297.969 63.8727 298.521 64.1607C299.073 64.4487 299.481 64.7847 299.745 65.1687L297.153 70.5327ZM313.772 64.1607H321.152L314.096 71.0007L321.872 80.7207H314.636L307.796 72.2967V80.7207H301.856V52.6407H307.796V69.9927L313.772 64.1607Z" fill="#FFBB00"/>
</svg>
