<svg width="91" height="99" viewBox="0 0 91 99" fill="none" xmlns="http://www.w3.org/2000/svg">
<circle cx="45.2556" cy="53.3445" r="45" fill="#FFBB00" fill-opacity="0.14"/>
<circle cx="72.8469" cy="15.457" r="15" fill="#FFBB00"/>
<path d="M75.9457 20.6223V21.2942H69.8519V20.6223H70.9222C71.3233 20.6223 71.641 20.5494 71.8754 20.4036C72.1149 20.2577 72.2347 19.9478 72.2347 19.4739V11.0676C71.8858 11.4947 71.5368 11.8801 71.1879 12.2239C70.8389 12.5624 70.5004 12.7317 70.1722 12.7317C69.9379 12.7317 69.7452 12.6536 69.5941 12.4973C69.4431 12.3359 69.3676 12.1275 69.3676 11.8723C69.7373 11.7786 70.0993 11.6379 70.4535 11.4504C70.8129 11.2577 71.2295 10.9869 71.7035 10.6379L72.8285 9.80981H73.8519V19.4739C73.8519 19.9426 73.9691 20.2525 74.2035 20.4036C74.4431 20.5494 74.7634 20.6223 75.1644 20.6223H75.9457Z" fill="black"/>
<circle cx="44.5755" cy="41.7036" r="8.7554" stroke="#FFBB00" stroke-width="3"/>
<path d="M62.6778 73.7406H31.4731C28.7117 73.7406 26.4261 71.4921 26.7609 68.7511C27.4567 63.0549 29.4588 58.2645 33.248 55.4334C35.0883 54.0585 37.567 55.0124 39.4121 56.3808C40.719 57.3501 42.4468 58.2001 44.4874 58.2001C46.716 58.2 48.5684 57.3295 49.9501 56.3459C51.8308 55.0072 54.3478 54.0921 56.1631 55.5182C56.7654 55.9913 57.3202 56.5156 57.8299 57.0865" stroke="#FFBB00" stroke-width="3"/>
<circle cx="62.6778" cy="65.1614" r="8.57908" stroke="#FFBB00" stroke-width="3"/>
<path d="M62.841 61.0852V69.2375M58.6018 65.107H66.754" stroke="#FFBB00" stroke-width="2" stroke-linecap="round"/>
</svg>
