<svg width="639" height="285" viewBox="0 0 639 285" fill="none" xmlns="http://www.w3.org/2000/svg">
<path fill-rule="evenodd" clip-rule="evenodd" d="M402.237 96.0715L390.274 91.2002C386.021 77.863 381.014 53.902 360.01 34.8159C339.289 15.987 302.143 2.22898 232.287 14.6248C160.144 27.4263 91.8916 47.9086 50.2661 77.6067C29.5047 92.4191 15.8344 109.191 11.1819 128.002C6.56839 146.656 10.6009 168.232 27.136 193.255C48.5762 220.983 82.9773 241.524 119.733 255.143C156.5 268.765 195.11 275.27 224.324 275.27C260.448 275.27 290.643 268.791 316.407 254.399C342.156 240.014 358.865 223.822 377.64 191.214L390.411 189.409C371.016 223.095 348.266 246.91 320.796 262.256C293.34 277.593 261.526 284.27 224.324 284.27C193.965 284.27 154.298 277.548 116.607 263.582C78.9615 249.634 42.7732 228.27 19.9103 198.624L19.8114 198.495L19.7219 198.36C2.15183 171.83 -2.94606 147.639 2.44518 125.841C7.80579 104.167 23.315 85.7794 45.0389 70.2803C88.384 39.3553 158.325 18.6086 230.715 5.7632C302.208 -6.92306 342.567 6.80553 366.062 28.1551C389.274 49.2474 398.299 83.7235 402.237 96.0715Z" fill="url(#paint0_linear_246_76)"/>
<path d="M109.425 163.6H98.5045V135.145C98.5045 131.155 97.3495 127.9 95.2495 125.17C93.0445 122.44 90.1045 121.075 86.4295 121.075C82.6495 121.075 79.7095 122.44 77.3995 125.17C75.0895 127.9 73.9345 131.26 73.9345 135.145V163.6H63.1195V111.73H73.1995L73.9345 118.66C75.2995 116.035 77.2945 114.04 79.9195 112.78C82.5445 111.52 85.3795 110.89 88.4245 110.89C96.6145 110.89 101.97 114.355 104.7 121.285C108.48 114.46 114.36 110.995 122.445 110.995C129.48 110.995 134.94 113.095 138.72 117.295C142.5 121.495 144.39 127.375 144.39 134.935V163.6H133.47V134.935C133.47 130.945 132.42 127.585 130.53 125.065C128.535 122.545 125.7 121.18 122.025 121.18C118.245 121.18 115.2 122.545 112.89 125.275C110.58 128.005 109.425 131.26 109.425 135.145V163.6ZM199.643 120.025L199.958 111.835H210.458V163.6H200.168L199.643 155.2C197.963 158.35 195.443 160.765 192.083 162.445C188.723 164.125 185.258 164.965 181.793 164.965C174.023 165.07 167.618 162.655 162.683 157.825C157.643 152.995 155.228 146.275 155.228 137.665C155.228 129.265 157.748 122.755 162.788 117.925C167.828 113.095 174.233 110.68 182.003 110.68C185.678 110.68 189.143 111.52 192.398 113.2C195.548 114.88 197.963 117.19 199.643 120.025ZM182.843 120.55C178.013 120.55 174.023 122.125 170.873 125.275C167.618 128.425 166.043 132.52 166.043 137.665C166.043 142.915 167.618 147.01 170.873 150.16C174.023 153.31 178.013 154.885 182.843 154.885C185.888 154.885 188.618 154.255 191.033 152.995C193.448 151.735 195.233 150.16 196.493 148.06C197.753 146.065 198.593 143.86 199.223 141.445C199.853 139.03 199.853 136.615 199.223 134.095C198.593 131.68 197.753 129.475 196.493 127.375C195.233 125.38 193.448 123.7 191.033 122.44C188.618 121.18 185.888 120.55 182.843 120.55ZM275.321 163.6H264.401V135.88C264.401 131.365 263.141 127.795 260.726 125.065C258.206 122.335 254.846 120.97 250.436 120.97C246.236 120.97 242.771 122.545 240.041 125.485C237.311 128.53 235.946 132.205 235.946 136.51V163.6H225.131V111.73H235.001L235.631 119.29C240.461 113.83 246.341 110.995 253.061 110.995C259.571 110.995 264.821 113.2 269.021 117.61C273.221 122.02 275.321 128.11 275.321 135.775V163.6ZM328.068 113.83L333.738 106.9L341.613 112.99L335.418 120.235C339.618 125.17 341.718 130.525 341.718 136.3C341.718 141.025 340.563 145.12 338.253 148.585C335.943 152.155 332.478 154.78 327.963 156.46C336.993 159.61 341.613 165.175 341.613 173.365C341.613 180.085 338.778 185.23 333.318 188.905C327.858 192.685 321.348 194.47 313.893 194.47C305.283 194.47 298.563 192.475 293.628 188.38C288.693 184.285 286.383 178.615 286.593 171.475H297.408C297.198 175.36 298.773 178.405 302.028 180.61C305.283 182.815 309.273 183.97 313.893 183.97C318.303 183.97 322.083 183.13 325.443 181.24C328.698 179.455 330.378 176.83 330.378 173.365C330.378 169.795 328.803 167.065 325.863 165.07C322.923 163.18 318.933 162.13 314.103 162.13C305.598 162.13 298.773 159.82 293.733 155.2C288.588 150.58 286.068 144.28 286.068 136.3C286.068 128.11 288.798 121.81 294.363 117.19C299.823 112.57 306.438 110.26 314.103 110.26C319.878 110.26 324.498 111.52 328.068 113.83ZM314.103 120.34C309.273 120.34 305.283 121.81 301.923 124.54C298.563 127.27 296.988 131.26 296.988 136.3C296.988 141.34 298.563 145.225 301.818 147.955C305.073 150.79 309.168 152.155 314.103 152.155C318.933 152.155 322.923 150.685 326.073 147.745C329.223 144.805 330.903 140.92 330.903 136.3C330.903 131.47 329.223 127.585 325.968 124.645C322.713 121.81 318.723 120.34 314.103 120.34ZM377.13 110.785C385.005 110.785 391.41 113.41 396.45 118.555C401.49 123.7 404.01 130.105 404.01 137.77C404.01 145.54 401.49 152.05 396.555 157.09C391.62 162.13 385.11 164.65 377.13 164.65C369.15 164.65 362.64 162.13 357.81 157.09C352.875 152.05 350.46 145.54 350.46 137.77C350.46 130 352.875 123.595 357.81 118.45C362.745 113.41 369.15 110.785 377.13 110.785ZM377.13 120.76C372.3 120.76 368.52 122.44 365.58 125.695C362.64 129.055 361.275 133.045 361.275 137.77C361.275 142.6 362.64 146.59 365.58 149.74C368.415 152.995 372.3 154.57 377.13 154.57C381.96 154.57 385.74 152.995 388.68 149.74C391.62 146.59 393.09 142.6 393.09 137.77C393.09 133.15 391.515 129.16 388.575 125.8C385.53 122.44 381.75 120.76 377.13 120.76ZM443.479 154.255C448.204 154.255 452.089 152.785 455.239 149.635C458.284 146.59 459.859 142.6 459.859 137.77C459.859 132.94 458.284 128.95 455.344 125.905C452.299 122.86 448.309 121.285 443.479 121.285C438.544 121.285 434.554 122.86 431.614 126.01C428.674 129.16 427.204 133.15 427.204 137.77C427.204 142.495 428.674 146.38 431.824 149.53C434.869 152.68 438.754 154.255 443.479 154.255ZM426.259 187.645H415.444V111.835H425.629L426.259 120.235C428.149 117.295 430.669 114.985 434.029 113.305C437.389 111.625 440.854 110.785 444.529 110.785C452.194 110.89 458.494 113.41 463.324 118.45C468.154 123.49 470.674 130 470.674 137.77C470.674 145.75 468.259 152.155 463.534 157.195C458.704 162.235 452.404 164.755 444.529 164.755C440.959 164.755 437.389 164.125 434.029 162.655C430.669 161.185 428.044 158.98 426.259 156.04V187.645ZM505.612 110.785C513.487 110.785 519.892 113.41 524.932 118.555C529.972 123.7 532.492 130.105 532.492 137.77C532.492 145.54 529.972 152.05 525.037 157.09C520.102 162.13 513.592 164.65 505.612 164.65C497.632 164.65 491.122 162.13 486.292 157.09C481.357 152.05 478.942 145.54 478.942 137.77C478.942 130 481.357 123.595 486.292 118.45C491.227 113.41 497.632 110.785 505.612 110.785ZM505.612 120.76C500.782 120.76 497.002 122.44 494.062 125.695C491.122 129.055 489.757 133.045 489.757 137.77C489.757 142.6 491.122 146.59 494.062 149.74C496.897 152.995 500.782 154.57 505.612 154.57C510.442 154.57 514.222 152.995 517.162 149.74C520.102 146.59 521.572 142.6 521.572 137.77C521.572 133.15 519.997 129.16 517.057 125.8C514.012 122.44 510.232 120.76 505.612 120.76ZM583.09 117.4L577 124.54C573.43 121.39 568.915 119.71 563.35 119.71C559.99 119.71 557.26 120.235 555.265 121.285C553.27 122.335 552.325 123.91 552.325 125.905C552.325 129.685 556.105 131.89 563.56 132.52C566.5 132.835 569.02 133.255 571.12 133.675C573.22 134.095 575.53 134.935 577.945 135.985C580.36 137.035 582.25 138.715 583.51 140.815C584.77 143.02 585.505 145.645 585.505 148.795C585.4 153.73 583.405 157.72 579.415 160.66C575.425 163.705 570.07 165.175 563.455 165.175C553.375 165.175 545.5 162.025 539.83 155.62L545.5 147.955C549.91 152.995 556 155.515 563.665 155.62C566.605 155.62 569.125 155.095 571.33 153.94C573.43 152.89 574.585 151.21 574.69 148.9C574.69 146.695 573.745 145.015 571.75 143.965C569.755 142.915 566.71 142.18 562.72 141.76C548.65 140.5 541.615 135.25 541.615 126.22C541.615 120.97 543.715 117.085 548.125 114.46C552.535 111.835 557.47 110.47 563.14 110.47C571.225 110.47 577.84 112.78 583.09 117.4ZM602.098 98.0801L613.018 96.9251V111.94H628.138V121.285H612.913V145.96C612.913 151.63 615.328 154.465 620.368 154.465C622.363 154.465 624.568 153.94 626.983 152.68L630.133 161.92C626.563 163.495 623.098 164.23 619.738 164.23C614.068 164.44 609.658 162.97 606.613 159.82C603.568 156.67 602.098 152.05 602.098 145.96V121.285H592.123V111.94H602.098V98.0801Z" fill="black"/>
<defs>
<linearGradient id="paint0_linear_246_76" x1="402.237" y1="120.691" x2="-14.869" y2="142.582" gradientUnits="userSpaceOnUse">
<stop offset="0.587502" stop-color="#FFBB00"/>
<stop offset="0.75846" stop-color="#FF8C00"/>
<stop offset="1" stop-color="#FF6200"/>
</linearGradient>
</defs>
</svg>
